<svg version="1.1" xmlns="http://www.w3.org/2000/svg" xmlns:xlink="http://www.w3.org/1999/xlink" width="229.04176" height="172.28414" viewBox="0,0,229.04176,172.28414"><g transform="translate(-226.69412,-149.89849)"><g data-paper-data="{&quot;isPaintingLayer&quot;:true}" fill-rule="nonzero" stroke-linejoin="miter" stroke-miterlimit="10" stroke-dasharray="" stroke-dashoffset="0" style="mix-blend-mode: normal"><path d="M288.45174,236.04056c0,-44.81353 36.32854,-81.14207 81.14207,-81.14207c44.81353,0 81.14207,36.32854 81.14207,81.14207c0,44.81353 -36.32854,81.14207 -81.14207,81.14207c-44.81353,0 -81.14207,-36.32854 -81.14207,-81.14207z" fill="#ffffff" stroke="#000000" stroke-width="10" stroke-linecap="butt"/><path d="M436.72575,194.01014c0,0 -8.09619,11.81965 -18.63049,11.67037c-6.90371,-0.09783 -15.52066,-12.66304 -21.26599,-11.47652c-11.54272,2.38379 -14.13404,10.58151 -28.15462,11.37235c-8.51642,0.48037 -21.27399,-10.44796 -28.0851,-9.32614c-8.91024,1.46755 -14.46853,8.06728 -18.27997,8.26754c-8.81763,0.46328 -18.68019,-10.50761 -18.68019,-10.50761" fill="none" stroke="#000000" stroke-width="10" stroke-linecap="round"/><path d="M443.73082,229.0355h-150.60903" fill="none" stroke="#000000" stroke-width="10" stroke-linecap="round"/><path d="M353.83241,234.2893c0,10.63918 -5.22713,19.26395 -11.67512,19.26395c-6.44799,0 -11.67512,-8.62476 -11.67512,-19.26395c0,-10.63918 5.22713,-19.26395 11.67512,-19.26395c6.44799,0 11.67512,8.62476 11.67512,19.26395z" fill="#ff0000" stroke="#000000" stroke-width="10" stroke-linecap="butt"/><path d="M406.70039,234.61925c0,10.63918 -5.22713,19.26395 -11.67512,19.26395c-6.44799,0 -11.67512,-8.62476 -11.67512,-19.26395c0,-10.63918 5.22713,-19.26395 11.67512,-19.26395c6.44799,0 11.67512,8.62476 11.67512,19.26395z" fill="#ff0000" stroke="#000000" stroke-width="10" stroke-linecap="butt"/><text transform="translate(226.78806,182.1677) scale(0.18788,0.18788)" font-size="40" xml:space="preserve" fill="#ff0000" fill-rule="nonzero" stroke="none" stroke-width="1" stroke-linecap="butt" stroke-linejoin="miter" stroke-miterlimit="10" stroke-dasharray="" stroke-dashoffset="0" font-family="Sans Serif" font-weight="normal" text-anchor="start" style="mix-blend-mode: normal"><tspan x="0" dy="0">gottem</tspan></text></g></g></svg>