<svg version="1.1" xmlns="http://www.w3.org/2000/svg" xmlns:xlink="http://www.w3.org/1999/xlink" width="105.72724" height="77.84649" viewBox="0,0,105.72724,77.84649"><g transform="translate(-202.14576,-219.75495)"><g data-paper-data="{&quot;isPaintingLayer&quot;:true}" fill="#000000" fill-rule="nonzero" stroke="#ffffff" stroke-width="0.5" stroke-linecap="butt" stroke-linejoin="miter" stroke-miterlimit="10" stroke-dasharray="" stroke-dashoffset="0" style="mix-blend-mode: normal"><path d="M237.16796,261.13416c0,-1.38071 1.11929,-2.5 2.5,-2.5c1.38071,0 2.5,1.11929 2.5,2.5c0,1.38071 -1.11929,2.5 -2.5,2.5c-1.38071,0 -2.5,-1.11929 -2.5,-2.5z"/><path d="M277.44016,256.91172l0.60608,0.80773c0.64583,-4.17143 0.49449,-8.50561 -0.18643,-12.78504c-0.0317,-0.11264 -0.06393,-0.22536 -0.09669,-0.33814c-1.59431,1.80164 -3.59253,3.05054 -6.59794,3.27964c-2.04222,0.15568 -4.91092,-0.49139 -6.59677,-2.13269c-4.50088,3.73362 -8.6506,5.44818 -14.9108,4.62045c-2.83344,-0.37464 -5.61345,-0.43928 -7.34034,-3.28207c-6.94521,5.05846 -19.42085,7.72955 -26.39094,1.81143c-0.28225,-0.23965 -0.53693,-0.49685 -0.76836,-0.76842c-0.31863,0.5434 -0.62278,1.09287 -0.91174,1.64801c-1.19678,2.67041 -1.91482,3.90508 -2.5061,6.05557c1.90941,0.32302 3.81429,0.78381 5.89283,1.21369c4.31304,0.892 8.8367,1.23374 13.21111,1.85923c0,0 0.33704,0.0484 0.7445,0.23386c1.07578,-5.00494 5.41917,-9.99819 10.49801,-8.88417c1.35849,0.29798 2.38164,1.45239 3.46409,2.32566c1.15043,0.92811 2.3973,1.82457 3.21038,3.05899c0.84582,1.28412 1.27734,2.55399 1.38306,3.78823c0.92093,0.09105 1.84893,0.10539 2.76517,0.0281l2.07184,-0.58171c0,0 0.10232,-0.02663 0.27036,-0.04789c0.40063,-6.33032 7.62297,-9.17564 13.34596,-5.41825c1.83673,1.20589 2.96759,3.0073 3.53874,5.00013c1.77717,-0.46386 3.54575,-0.96169 5.30399,-1.49232zM253.27415,264.43843c-1.43908,0.09293 -2.89452,0.03626 -4.332,-0.14581c-1.94865,3.3998 -5.85786,6.17028 -9.07558,7.67107l-2.19726,-0.36761c-1.3855,0.16709 -2.27773,-1.11229 -2.27773,-1.11229c-1.56641,-2.26076 -3.07321,-4.07975 -3.77986,-6.83961c-0.73184,0.31335 -1.47832,0.20616 -1.47832,0.20616c-4.46262,-0.64334 -9.05824,-1.00022 -13.46383,-1.90216c-2.02615,-0.41481 -3.86106,-0.90912 -5.71517,-1.22986c-0.38942,8.38275 3.47151,19.29288 9.8473,23.96876c4.09268,3.0015 8.97191,3.41964 13.45371,5.34257c1.27769,0.5482 2.41456,1.38761 3.62833,2.06623c3.08238,0.31241 6.00387,0.49699 9.12147,-0.29474c5.17903,-1.31525 9.8288,-6.33481 13.70325,-9.71923c4.22587,-3.69139 8.91633,-7.34388 12.26745,-11.89032c1.82844,-2.48064 3.13805,-5.15017 4.01776,-7.93629c-1.49624,0.43016 -2.99912,0.83763 -4.50769,1.22179c-0.19016,1.36614 -0.65401,2.72996 -1.44382,3.83999c-0.861,1.21008 -2.39904,1.75131 -3.59856,2.62697l-1.75633,0.49016c0,0 -2.03809,0.22645 -2.62766,-1.57667c-1.37705,1.01547 -2.88804,-0.11243 -2.88804,-0.11243c-0.99608,-0.79274 -2.31583,-1.29726 -2.98826,-2.37822c-0.50164,-0.8064 -0.87704,-1.68857 -1.16641,-2.60303zM244.78746,260.90794c0.10235,-0.45036 0.26899,-0.79861 0.47268,-1.06712c-0.06957,-0.49102 -0.28298,-0.97908 -0.67488,-1.45533c-0.6231,-0.7572 -1.46676,-1.30199 -2.2074,-1.94468c-0.53142,-0.46114 -0.95434,-1.10793 -1.60864,-1.36669c-1.9462,-0.76969 -2.72591,2.10897 -3.18449,3.19378c-1.62208,3.83712 -0.79886,5.46631 1.35798,8.57013c1.87691,-1.01507 4.63608,-2.83668 5.79688,-4.83204c-0.0542,-0.31474 -0.04746,-0.6785 0.04789,-1.09805zM263.32527,258.44254c0,-0.63389 0.23592,-1.21269 0.62475,-1.65336c-2.24847,-0.51046 -4.11308,0.62867 -3.62162,3.54057c0.18095,1.07216 0.33416,2.2143 0.92215,3.12894c0.4147,0.64509 1.27463,0.85309 1.91195,1.27963c0,0 0.56178,0.41935 0.8683,1.1114c0.55392,-0.32378 1.1043,-0.38494 1.1043,-0.38494l-0.51405,0.35213c0.80197,-0.49316 1.79527,-0.7629 2.40591,-1.47947c0.44651,-0.52397 0.53355,-1.30218 0.55102,-1.99037c0.015,-0.59089 -0.00732,-1.29959 -0.13202,-2.00094c-0.43642,0.37193 -1.00234,0.59643 -1.62069,0.59643c-1.38071,0 -2.5,-1.11929 -2.5,-2.5zM203.06815,260.1889c-1.64284,-1.88443 0.24158,-3.52727 0.24158,-3.52727l2.11057,-1.19378c0.42908,-0.0325 0.8502,-0.05202 1.26486,-0.05996c0.72275,-3.06125 1.53894,-4.39797 3.06007,-7.81267c0.87125,-1.66579 1.85916,-3.28485 2.95005,-4.84872c-0.08603,-0.27009 -0.17269,-0.53796 -0.26228,-0.80191c0,0 -0.79057,-2.37171 1.58114,-3.16227c0.7279,-0.24264 1.30687,-0.1874 1.75976,0.00572c8.70334,-10.09303 21.75097,-17.20144 34.63671,-18.53905c7.43108,-0.77139 16.25463,0.09172 21.99358,5.42186c3.10609,2.88483 5.55032,6.50911 7.41291,10.39159c0.43975,0.33595 0.68123,0.71721 0.68123,0.71721l0.14644,1.11244c0.83684,1.96409 1.53305,3.97349 2.09849,5.96908c1.62799,10.28626 0.58006,20.68528 -5.74467,29.29991c-3.55901,4.84756 -8.49188,8.74943 -12.99266,12.67936c-4.53045,3.95583 -9.65027,9.20949 -15.66336,10.77851c-3.06588,0.79999 -5.96561,0.8337 -8.95161,0.62109c-1.02173,0.56095 -2.19859,0.07317 -2.19859,0.07317c-0.24721,-0.10381 -0.48962,-0.21758 -0.72854,-0.33857c-0.11746,-0.01216 -0.23516,-0.02443 -0.35313,-0.03678l-3.07707,-0.52264c0,0 -2.08854,-0.35839 -2.08997,-2.33811c-4.43542,-1.68275 -9.0821,-2.36612 -13.09478,-5.35508c-7.62265,-5.67793 -12.25638,-17.87562 -11.90534,-27.88538c-0.69387,0.32364 -1.83325,0.54766 -2.87541,-0.64775zM205.83067,260.45099l0.1291,-0.00346c0.00012,-0.00259 0.00026,-0.00518 0.00038,-0.00777c-0.04307,0.00357 -0.08623,0.00731 -0.12948,0.01123zM219.2389,245.14778c3.9757,3.13723 8.60299,1.71604 12.98682,0.76192c3.02677,-0.65876 4.99045,-0.90429 7.35504,-2.86344l1.08308,-2.10761c0.40603,-0.83171 1.26006,-1.40465 2.2479,-1.40465c1.08249,0 2.00429,0.688 2.35199,1.65057l1.25913,3.24719c0.35384,0.28479 0.74375,0.51674 1.18243,0.67591c5.2685,1.91162 10.11071,-0.0469 14.08167,-3.43417l1.57098,-3.14192c0.40087,-0.84561 1.26228,-1.4304 2.26028,-1.4304c1.35861,0 2.4641,1.08374 2.49914,2.4339l0.08102,2.68703c0.64573,0.59166 2.01283,0.72358 2.63949,0.66452c2.5922,-0.24427 3.77535,-1.92692 4.85098,-3.89422c-1.63907,-3.58885 -3.84623,-6.97278 -6.64211,-9.61648c-4.61461,-4.36341 -12.17758,-4.77222 -18.12744,-4.15288c-12.20365,1.27031 -24.86137,8.41871 -32.66895,18.3729c0.29002,0.67504 0.6235,1.26377 0.98854,1.55182z"/><path d="M261.86463,272.42762c1.76779,1.76774 0.00005,3.53553 0.00005,3.53553l-0.74291,0.66252c-4.8108,3.09072 -9.74595,6.75258 -15.78459,6.03834c-2.89927,-0.34292 -5.86776,-2.96947 -8.558,-4.071c0,0 -2.30987,-0.9563 -1.35357,-3.26617c0.9563,-2.30987 3.26617,-1.35357 3.26617,-1.35357c2.19108,0.91568 5.14341,3.45881 7.4884,3.76232c4.32574,0.55985 8.79353,-3.09627 12.23619,-5.31477l-0.08727,0.00685c0,0 1.76774,-1.76779 3.53553,-0.00005z"/><path d="M268.7924,288.52834c-3.5545,1.21742 -6.81036,2.55081 -10.64491,0.98948c-8.65332,-3.5234 -6.12391,-17.91897 0.51544,-22.30483c4.78037,-3.15784 14.2064,-4.36197 18.2827,0.95998c1.14768,1.49839 1.12759,3.6287 1.31978,5.50631c0.68088,6.65206 -4.02896,11.38263 -8.82138,14.86519c-0.21721,-0.00538 -0.43442,-0.01075 -0.65163,-0.01613zM261.46447,285.1841c0.0367,-0.1722 0.09239,-0.35345 0.17015,-0.54398c0.94473,-2.31462 3.25935,-1.3699 3.25935,-1.3699l0.04367,0.16379c0.83594,0.0907 1.67188,0.18141 2.50781,0.27211c0.09986,-0.02944 0.38039,-0.10275 0.74011,-0.1172c2.88286,-2.46794 5.18768,-5.61542 5.08572,-9.66745c-0.02377,-0.94453 0.19366,-2.05265 -0.37112,-2.8101c-2.20202,-2.95322 -9.01063,-1.36245 -11.32546,0.16629c-2.917,1.92643 -4.07742,6.77046 -3.81002,9.91446c0.13244,1.55715 0.69746,3.16335 2.28946,3.7035c0.47888,0.16248 0.94821,0.2534 1.41031,0.28847z"/><path d="M301.18125,280.38014c-0.65087,1.50811 -2.46593,1.36938 -2.46593,1.36938c-4.43379,-0.35788 -8.38124,0.4541 -12.69427,-1.35858c-10.89236,-4.57784 -10.88519,-18.87842 -2.36486,-25.849c3.52946,-2.88749 8.39886,-3.66276 12.80152,-2.7661c3.53907,0.72078 4.85382,2.3212 7.35594,5.20927c2.27794,2.62932 2.64481,5.01921 3.80935,8.36965c0.39109,5.46636 -0.75301,9.09269 -4.14197,13.47451zM297.68897,276.71443c0.09253,-0.07029 0.15167,-0.10655 0.15167,-0.10655l1.70077,-0.85748c2.40211,-3.03458 3.47714,-5.54728 3.18547,-9.38166c-1.38789,-3.97175 -2.28979,-6.51987 -5.75093,-9.18265c-3.34001,-2.56959 -9.26531,-0.13923 -11.46042,2.78459c-3.56297,4.74577 -4.74152,10.37963 0.32529,14.73242c3.21549,2.76237 7.87775,1.99144 11.84815,2.01133z"/></g></g></svg>