<svg version="1.1" xmlns="http://www.w3.org/2000/svg" xmlns:xlink="http://www.w3.org/1999/xlink" width="193.25274" height="193.95546" viewBox="0,0,193.25274,193.95546"><defs><linearGradient x1="246.52566" y1="76.38488" x2="246.52566" y2="202.96529" gradientUnits="userSpaceOnUse" id="color-1"><stop offset="0" stop-color="#ffaf59"/><stop offset="1" stop-color="#e57600"/></linearGradient></defs><g transform="translate(-146.41432,-15.88027)"><g data-paper-data="{&quot;isPaintingLayer&quot;:true}" fill-rule="nonzero" stroke-linejoin="miter" stroke-miterlimit="10" stroke-dasharray="" stroke-dashoffset="0" style="mix-blend-mode: normal"><path d="M232.06831,199.05763c-0.30447,0.07392 -0.617,0.13381 -0.93714,0.17874c-0.33423,0.0469 -0.65448,0.08021 -0.96139,0.10048c-1.45761,-0.43799 -2.86273,-1.08149 -3.99361,-1.96456c0.40229,-0.05256 0.80154,-0.19756 1.20396,-0.3065c-0.04841,-0.01545 -0.09671,-0.03163 -0.1449,-0.04859c-1.18036,-0.41527 -1.68756,-1.77918 -2.19383,-3.02272c-0.27238,0.3929 -0.54024,0.7502 -0.80506,1.07238c-0.10374,-0.20885 -0.19859,-0.42954 -0.28447,-0.66049c-0.15073,0.05158 -0.30395,0.09524 -0.45968,0.13052c-0.27245,-0.94719 -0.46192,-1.99122 -0.61462,-3.09184c-0.92892,0.24972 -1.87095,0.4791 -2.73744,0.82566c-0.66325,-0.80626 -1.42257,-1.55436 -2.16987,-2.30973l-0.2514,1.07495c0.0206,0.04439 0.04134,0.08878 0.06222,0.1332c0.2079,0.44225 0.41546,0.88904 0.6272,1.33601c0.65687,0.6154 1.37342,1.18426 2.11173,1.70496c-0.57572,-0.24227 -1.17675,-0.59164 -1.80372,-1.06222c0.70064,1.4421 1.4672,2.86424 2.45092,4.11923c-1.77994,0.36144 -3.68125,-0.79747 -6.15291,-3.33017c-0.24437,-0.25041 -0.46105,-0.58544 -0.653,-0.98256c-2.47989,-1.85634 -4.47129,-3.4155 -5.83031,-5.78211c-0.34839,-1.56947 -0.57807,-3.1403 -0.70222,-4.72105l0.14562,0.02135c-0.07108,-0.42408 -0.14775,-0.88464 -0.22564,-1.35806c-0.02176,-0.52471 -0.0324,-1.05078 -0.03238,-1.5785c-0.01156,-0.0279 -0.02305,-0.05582 -0.03446,-0.08375c0.01156,-0.02393 0.02315,-0.04787 0.03478,-0.07178c0.00125,-0.31206 0.0062,-0.62472 0.01476,-0.93803l-0.4025,0.04228c-0.20503,-1.3425 -0.34483,-2.39452 -0.29409,-2.48324c0.18943,-0.33125 0.49981,-0.45126 0.87403,-0.45977c0.02186,-0.23377 0.04551,-0.46799 0.07091,-0.7027c-0.30052,0.32924 -0.59626,0.6619 -0.88292,1.00107l-0.25334,-0.72422l1.55017,-3.28791c0.15339,-0.92911 0.33065,-1.86715 0.52945,-2.8156l0.33626,-0.43371l-0.70696,-0.09596c-0.57869,-0.09542 -1.2242,-0.04533 -1.83286,-0.07548c0.33929,-0.20921 0.72586,-0.37848 1.11665,-0.54418c-0.48184,-1.16173 -1.05441,-2.29782 -1.60434,-3.44031l2.34652,-3.9394l-2.07205,-0.85407c0.7606,-2.98671 1.40655,-6.00113 2.08066,-9.00884l0.38748,0.18202c-0.05136,-0.46929 -0.08767,-0.94008 -0.10402,-1.41286c-0.00025,-0.00711 -0.00047,-0.01423 -0.00069,-0.02137c0.10697,-0.46948 0.2151,-0.93869 0.32496,-1.40749c0.18597,-0.79361 0.31301,-1.61314 0.44517,-2.43143c0.19359,-0.57877 0.41061,-1.16726 0.63531,-1.75091c0.07122,-0.08474 0.14173,-0.16996 0.21142,-0.25569l0.94278,2.25385c0.81205,-1.89798 1.55799,-3.81994 2.27532,-5.75304l0.61745,0.37008c0.0012,-0.71212 0.0085,-1.42379 0.0294,-2.13447c0.05416,-0.14927 0.10822,-0.29857 0.16219,-0.44792l-0.14488,-0.05875c0.00505,-0.12905 0.01061,-0.25807 0.01672,-0.38706c0.18215,-0.35317 0.36181,-0.70756 0.53919,-1.06302c0.06655,-0.06341 0.13316,-0.12678 0.19978,-0.19013c0.09476,-0.26451 0.18947,-0.52908 0.2842,-0.79366c1.91938,-3.95621 3.58535,-8.03363 5.30466,-12.08533c0.7588,0.2145 1.57383,1.39296 2.3457,1.83152l0.82461,0.29876c0.15077,-0.25949 0.3029,-0.5182 0.45642,-0.77608c0.23906,-0.40155 1.08121,-1.84718 2.14313,-3.62935c0.0208,0.08306 0.04153,0.16613 0.06211,0.2492c0.12887,-0.29982 0.25792,-0.5995 0.38719,-0.89902l0.00618,-0.11254c0.05024,-0.08385 0.10081,-0.16818 0.15169,-0.25293c0.32591,-0.75375 0.65332,-1.50651 0.98287,-2.25816c-0.33421,0.07916 -0.67101,0.15215 -1.00872,0.22294l0.10968,-1.99446c0.42941,-1.06301 0.8489,-2.12557 1.27036,-3.18469c-0.83468,-0.30693 -1.92471,-0.45119 -2.3197,-1.03823c0.01943,-0.0356 0.03887,-0.07117 0.05836,-0.10674c0.43094,-0.78665 0.82145,-1.61301 1.22538,-2.43135c0.40504,-0.33126 0.81297,-0.6628 1.0998,-1.03391c0.26559,-0.34364 0.64193,-0.85069 1.06139,-1.42372l0.05171,-1.15628c0.22442,-0.26174 0.46357,-0.51102 0.72057,-0.74506c0.44689,-0.40696 0.92035,-0.77757 1.41346,-1.12132c0.03239,-0.04507 0.06422,-0.08938 0.09546,-0.13286c-0.24812,0.00505 -0.49551,0.01412 -0.74187,0.02892l0.7061,-1.7182c0.10619,-0.13239 0.21278,-0.26446 0.31981,-0.39618c-0.00083,-0.01276 -0.00146,-0.02559 -0.00191,-0.03849c-0.02075,-0.60189 0.52973,-1.01119 1.04381,-1.43198c0.46777,-0.79417 0.91569,-1.63281 1.57187,-2.10921c-0.30246,-0.21985 -0.52444,-0.49169 -0.59276,-0.86284c-0.00429,-0.02329 -0.00752,-0.04623 -0.00975,-0.06882c0.42328,-0.56518 0.87596,-1.06846 1.489,-0.97849c0.39715,0.05828 0.71637,0.26739 0.99564,0.55378l4.12916,-1.7933c0.06704,0.02958 0.1338,0.0618 0.20013,0.09685c0.61364,-0.29072 1.23391,-0.57112 1.85466,-0.85079c-0.12014,0.74143 -0.20426,1.4927 -0.28276,2.2455c0.82155,-1.09118 1.65287,-2.17724 2.49469,-3.25899c0.46394,-0.22062 0.92395,-0.44738 1.37735,-0.68442l-0.33903,2.17758c0.83611,-0.17437 1.85775,0.2058 2.76563,0.24593c0.01647,-0.01398 0.03295,-0.02795 0.04943,-0.04191l3.93037,-0.89161c-0.06994,0.7686 -0.15813,1.53292 -0.28708,2.28763c0.66678,-0.59375 1.32603,-1.16097 1.96945,-1.69203c0.27575,-0.22759 0.63507,-0.52421 1.05815,-0.85857c0.12607,1.2146 0.35681,2.43333 0.55535,3.65078c1.61971,-0.90353 3.32226,-1.54033 4.96426,-1.77541c1.7759,-0.25425 3.98493,-0.47146 5.33499,0.70998c0.08569,0.075 0.17001,0.15134 0.25299,0.22899c0.2169,0.02115 0.43266,0.06197 0.64655,0.11995c-0.01488,0.16461 -0.03048,0.32764 -0.04622,0.48848c0.82042,0.89846 1.4991,1.92973 2.08693,3.02355c0.58254,-0.31768 1.21183,-0.54534 1.88836,-0.66322c0.17207,0.19881 0.33552,0.39773 0.48932,0.59329c1.37751,1.7515 1.26597,4.27327 1.85889,6.42123c0.02461,0.08914 0.20544,0.77523 0.45379,1.73346c2.50124,2.04095 5.24961,3.87063 7.07933,6.48564c0.15623,2.73934 0.15172,5.81817 0.1655,8.0685c0.94371,0.58104 1.79852,1.62833 2.55048,2.86863c0.95415,4.87907 1.80921,9.95321 2.29327,15.02024c1.42354,0.39854 2.5016,1.16031 3.33337,2.15154c0.88134,4.23061 1.56336,8.52017 2.21425,12.72178c0.45538,2.93952 1.15479,6.93056 0.63246,9.59823c-0.56356,2.87831 -1.34745,5.05668 -2.63766,6.21571c-0.1155,0.86666 -0.26336,1.72576 -0.44736,2.57003c-0.16782,3.14996 -0.79697,7.40995 -2.77781,9.83097c1.10727,-0.49142 2.23683,-0.94946 3.30172,-1.50435l-0.1304,6.90907c-0.16255,0.31653 -0.33169,0.62545 -0.50724,0.92554c0.01846,0.09708 0.02038,0.19428 0.00865,0.29156c-0.17929,0.18508 -0.3591,0.37144 -0.53952,0.55878c-0.92676,1.38971 -2.0058,2.53578 -3.21806,3.2923c-2.44759,2.40838 -5.09091,4.67171 -8.13875,6.11655c-0.51191,1.05 -1.19592,2.02543 -2.12207,2.88188c-1.5912,1.47144 -4.2115,2.84524 -6.19533,1.97263c-1.11271,-0.48943 -1.90055,-1.38644 -2.56783,-2.43472c-1.5472,0.15874 -3.05558,0.29062 -4.43705,0.44493c-4.80111,2.01942 -7.91042,2.3332 -12.97409,2.10938c-2.66999,-0.11802 -5.34603,0.81786 -8.0013,0.51406c-1.50917,-0.17267 -2.85254,-1.07438 -4.33531,-1.40425c-1.61146,-0.35849 -3.35135,0.5086 -4.88551,0.55218c-1.16821,0.03319 -2.31956,-0.34568 -3.48822,-0.35309c-1.33533,-0.00848 -2.67834,0.53175 -3.99441,0.30561c-1.15856,-0.19907 -2.10519,-1.04769 -3.17391,-1.53732c-3.69149,-1.69126 -6.98304,-4.21708 -9.44748,-7.38757c-0.18982,-0.49761 -0.38628,-0.99151 -0.60951,-1.46999c-1.12329,-2.4077 -1.92642,-4.78859 -2.45563,-7.17262c-0.75234,-1.31015 -1.31089,-2.86775 -1.65122,-4.86022l0.949,0.13917c-0.03493,-0.44472 -0.0615,-0.89022 -0.08002,-1.3367c-0.0729,-0.44315 -0.14686,-0.89758 -0.21828,-1.34394c0.04979,-0.10635 0.10031,-0.21243 0.15144,-0.31831c-0.1251,-0.30618 -0.24123,-0.6144 -0.34645,-0.92489c-0.00218,-0.01424 -0.00436,-0.02846 -0.00652,-0.04264l-0.00759,0.0008c-0.33875,-1.00982 -0.5612,-2.04384 -0.60007,-3.11041l0.12223,-0.25924l-0.63865,-1.82568c-0.31663,-1.30906 -0.95852,-2.66239 -0.44611,-3.85401c0.19353,-0.45007 0.541,-0.7701 0.96084,-1.02898c-0.56832,-0.02815 -1.10451,-0.12624 -1.52417,-0.47806c-0.53779,-0.45084 0.13094,-1.39742 0.19642,-2.09612l0.84006,-1.41031c-0.84753,-1.76074 -1.64132,-3.53666 -1.96646,-5.44508c-0.33667,-1.9761 0.16762,-3.95047 0.71571,-5.92792c-0.05038,-1.11984 -0.1107,-2.24738 0.37717,-3.21765c1.07278,-2.13354 2.90943,-3.77293 4.50035,-5.57128c0.23028,-1.20514 0.54552,-2.37638 1.15694,-3.42421c0.27981,-0.47952 0.59267,-0.93471 0.92995,-1.37193c0.04813,-0.14306 0.0928,-0.28174 0.13353,-0.41558l0.13302,0.07973c0.67312,-0.82534 1.42861,-1.59006 2.20468,-2.33962c0.04078,-0.66881 0.09826,-1.3364 0.17873,-2.0023c0.44979,-3.722 3.37966,-8.47888 4.92678,-11.85262l1.96094,-1.50221c0.92761,-2.15186 1.88326,-4.29024 2.91326,-6.39296l0.41141,-3.67283c1.6129,-2.24291 3.19931,-4.51126 4.85391,-6.72679l0.12492,-2.79346c1.19306,-1.30402 2.333,-2.65869 3.57917,-3.91204c0.03493,-0.03513 0.06954,-0.07198 0.10388,-0.11024l0.75283,-1.83192c0.52877,-0.19696 1.05755,-0.39392 1.58632,-0.59089c0.20265,-0.11772 0.3906,-0.24043 0.54037,-0.37605l6.81003,-2.00348c-0.07942,0.29682 -0.15394,0.59538 -0.22514,0.89511c0.70042,-0.31548 1.40093,-0.63082 2.0927,-0.95978c0.49881,-0.64097 1.00129,-1.28043 1.50761,-1.91855l6.73334,-2.50648c-0.23377,1.72438 -0.29865,3.48851 -0.45719,5.2306l2.7071,-0.61411c0.01009,0.11701 0.02126,0.23405 0.03342,0.35114c2.59652,-2.05203 7.59464,-5.52545 10.41485,-3.18724c1.60861,1.33369 1.54223,3.87565 1.33929,6.12154c1.47861,0.40086 2.86791,1.62273 3.92906,2.84881c0.15654,-0.02728 0.31561,-0.04868 0.47722,-0.06395c2.64827,-0.2503 5.19713,2.00435 6.85623,4.08361c1.54892,1.94117 1.62681,4.70974 2.10476,7.14671c0.21857,1.11446 0.3559,2.53795 0.44312,4.06725c0.05779,0.08259 0.11466,0.16597 0.17058,0.25016c1.55784,2.34539 1.48453,5.43621 2.04714,8.19505c0.16809,0.82422 0.33462,1.65521 0.49825,2.49193c1.86196,3.07114 3.09341,7.32567 3.48305,8.6154c0.84384,2.79313 1.54039,5.66095 2.14358,8.55639c2.18556,2.60456 2.67072,6.79338 3.25489,10.13948c0.79908,4.57704 0.42049,11.01225 0.29807,15.63125c-0.15468,5.83649 -0.28129,12.78154 -2.39116,18.30357c-0.30018,0.78565 -0.63635,1.54616 -1.00661,2.26715l-0.01357,0.71859c-0.1613,0.16496 -0.32295,0.33121 -0.48502,0.49851c-0.09347,0.77561 -1.05336,1.5576 -1.39742,2.34309c-2.55232,5.82699 -5.32957,9.39003 -11.3229,12.02658c-2.91566,1.28263 -6.18751,2.96142 -9.38296,3.33235c-0.96378,0.11187 -1.93855,-0.3283 -2.90256,-0.21841c-3.31128,0.37746 -5.70525,2.28424 -9.30518,2.11452c-2.29539,-0.10822 -4.56057,-1.02887 -6.84715,-0.80069c-1.21978,0.12172 -2.35264,0.81282 -3.57791,0.85013c-2.53984,0.07734 -5.67597,-0.82983 -8.31887,-0.90796c-2.02259,0.29241 -4.1108,0.13515 -6.12781,-0.19361c-2.91977,-0.4759 -6.75635,-0.69493 -9.37949,-2.18257c-0.99317,-0.56324 -1.63235,-1.5973 -2.47085,-2.37224c-1.03911,-0.96035 -3.77118,-3.21229 -4.58497,-4.32017c-0.88219,-1.20101 -1.36499,-2.63518 -1.90074,-4.03967c-1.59913,-2.05728 -2.85001,-4.386 -3.63591,-6.93427c-0.18792,-0.60933 -1.64603,-5.61725 -1.48176,-6.27166c0.24657,-0.98222 0.62195,-1.91978 1.05201,-2.83838c-0.06839,-0.42747 -0.13445,-0.84753 -0.19501,-1.2432c-0.00473,-0.01394 -0.00942,-0.02789 -0.01411,-0.04184l-0.44244,0.04647c-0.18202,-1.52106 -0.35881,-3.04277 -0.54605,-4.5632c-0.0276,-0.22413 -0.07287,-0.4507 -0.12799,-0.67861l-1.75884,-5.0279c0.37628,-4.60482 0.31634,-9.20977 0.55231,-13.82436c0.02318,-0.45336 0.00386,-0.92011 -0.01719,-1.3882c0.34214,-1.23441 0.70136,-2.47001 0.88374,-3.70799l2.72214,1.27868c0.09359,-0.41756 0.18772,-0.835 0.28278,-1.25221c-0.0325,-1.08298 0.29961,-2.43224 0.77013,-3.83892c0.06855,-0.42442 0.13848,-0.84851 0.21873,-1.26848c0.14103,-0.15941 0.28012,-0.32007 0.41658,-0.48243c0.60304,-1.56644 1.26135,-3.0981 1.67031,-4.3137c0.08727,-0.11312 0.17616,-0.22504 0.26654,-0.33586l1.49267,0.89468c0.21791,-0.58721 0.43317,-1.17547 0.64685,-1.76438c0.00497,-0.16895 0.01071,-0.33784 0.01731,-0.50667l-0.15202,-0.06164c0.05649,-0.10835 0.11273,-0.21683 0.16873,-0.32541c0.00911,-0.19216 0.01943,-0.38422 0.03114,-0.57619c0.16859,-0.16284 0.33815,-0.32496 0.50805,-0.48683c0.1632,-0.32704 0.32446,-0.655 0.48398,-0.98379c0.75976,-2.12187 1.52161,-4.24463 2.33442,-6.35156c0.72809,-1.88733 0.66859,-4.41921 2.2993,-5.61626c0.21666,-0.15904 0.44123,-0.18245 0.67095,-0.11751c0.25508,-0.60112 0.51133,-1.20168 0.76976,-1.80118l4.23596,-3.24504c-0.58068,0.12381 -1.15757,0.25666 -1.72222,0.41872l0.39952,-3.56664c0.55239,-1.1277 1.12618,-2.24513 1.7285,-3.34888c-0.08186,-0.12166 -0.13387,-0.26233 -0.14757,-0.42741c-0.0725,-0.87353 0.67436,-1.49161 1.43131,-2.11068c0.63482,-1.28611 1.30277,-2.55246 2.21289,-3.61391l0.04019,-0.89874c0.7031,-0.94147 1.41852,-1.8734 2.15352,-2.78978l1.65446,-4.02595c0.23057,-0.25689 0.44935,-0.57815 0.6766,-0.88157c-0.07154,-0.72558 0.89974,-1.09812 1.66256,-1.54124c0.6911,-0.25743 1.38222,-0.51485 2.07332,-0.77228c0,0 1.49523,-0.51459 2.87793,0.0955l2.07948,-0.90312c-0.0084,0.04968 -0.01663,0.09941 -0.02469,0.14919c0.03974,-0.0179 0.07948,-0.03581 0.11923,-0.05371c-0.19194,0.80799 -0.35977,1.62449 -0.53475,2.43848c0.0037,0.00746 0.0074,0.01495 0.01109,0.02246c0.04054,-0.05393 0.0811,-0.10784 0.12168,-0.16174c-0.01206,0.11566 -0.02398,0.23134 -0.03589,0.34704c0.05399,0.12354 0.10482,0.25392 0.15215,0.39145c0.14307,0.41571 0.22062,0.79944 0.24606,1.153c0.69828,-1.27433 1.409,-2.53703 2.54907,-3.38407c0.19036,-0.14143 0.39944,-0.22692 0.62161,-0.27325l-0.49595,3.18545c1.05868,-1.01032 2.14472,-1.9918 3.26158,-2.93952c0.05693,0.00252 0.11341,0.0037 0.16936,0.00332l3.2101,1.2416c-0.366,0.46198 -0.72981,0.92475 -1.09152,1.38833c0.47004,-0.43713 0.93924,-0.8646 1.40477,-1.27914c-0.14282,0.83588 -0.33566,1.65997 -0.60915,2.4651c-0.11438,0.33674 -0.25498,0.66034 -0.41587,0.97374l0.69476,0.50705c1.18152,-1.0892 2.51657,-2.06661 3.91321,-2.84571c0.29523,1.81032 0.51925,3.61783 0.222,5.40478c-0.01245,0.07482 -0.027,0.14886 -0.04353,0.22218c-1.43723,1.32852 -2.8449,2.71401 -4.20195,4.12871c0.05536,0.19131 0.10676,0.38555 0.15438,0.58231c0.19745,0.1008 0.39517,0.21993 0.59293,0.35862c-0.13471,0.17443 -0.27061,0.34749 -0.40762,0.51926c0.07178,0.39408 0.13045,0.79533 0.17746,1.20072c0.02173,-0.06405 0.04369,-0.1279 0.06589,-0.19151c-0.14207,-0.46513 0.05428,-0.94302 0.36567,-1.38041c0.046,0.03539 0.092,0.07185 0.13799,0.10941c0.08731,-0.19576 0.18487,-0.40623 0.29211,-0.62809c0.4178,-0.44769 0.8646,-0.81488 1.01445,-1.02381c0.70741,-0.9863 1.27457,-2.18174 1.80246,-3.43436c1.12048,-1.32612 2.43621,-2.39655 3.85315,-2.64871c0.01609,-0.01814 0.03219,-0.03626 0.0483,-0.05439c0.2219,-0.43225 0.46319,-0.8362 0.73345,-1.19102c-0.58263,0.32537 -1.18955,0.63168 -1.68371,1.04887c-0.9388,0.79257 -1.87131,1.6161 -2.79203,2.46335c1.01398,-2.45743 1.91799,-5.07317 3.45667,-6.72676c0.30566,-0.3285 3.22279,0.97453 2.77301,1.7396c-0.04393,0.07471 -0.09123,0.14629 -0.1416,0.21505c0.0618,-0.02159 0.1247,-0.0411 0.18876,-0.05845c0.91294,-0.72088 1.90814,-1.26455 3.04083,-1.46049c0.30196,-0.05223 0.60365,-0.0605 0.90315,-0.03128c0.20832,0.19493 0.40821,0.39804 0.60033,0.60844c-0.02488,0.25429 -0.05007,0.50312 -0.0732,0.74416c-0.02378,0.24793 -0.06495,0.49152 -0.12049,0.7315c0.76479,0.45507 1.33695,1.0996 1.76128,1.86268c0.16878,-0.1129 0.34189,-0.21802 0.51933,-0.31479c0.74933,1.39436 1.35102,2.89038 1.9105,4.34257c0.4941,1.28251 0.35568,2.70394 0.32505,4.1017l0.35647,-0.56661c-0.48678,1.77796 -0.41418,4.16614 -0.51208,5.56985c-0.04641,0.66544 0.23239,1.48064 -0.19656,1.99149c-0.39245,0.46738 -1.21052,0.19036 -1.79175,0.37644c-0.01812,0.0058 -0.03645,0.01301 -0.05495,0.02144c-0.05708,0.97078 -0.11407,1.94193 -0.17114,2.91335c0.87173,0.70866 1.83771,1.67261 2.91337,2.93153c0.10373,0.12141 0.20124,0.24629 0.293,0.37437c-1.11248,0.28692 -2.30207,0.36525 -3.41264,0.1943c-0.04097,0.69204 -0.0821,1.38416 -0.12344,2.07633c0.59715,-0.3471 1.21629,-0.45456 1.84321,-0.14919c1.23282,0.60051 2.17921,1.59018 2.93156,2.77819c0.02004,-0.5259 0.04039,-1.05177 0.06068,-1.57766c0.11009,0.54842 0.19503,1.10953 0.27394,1.67214c0.07092,-0.20104 0.16306,-0.39468 0.28128,-0.57902c0.41625,-0.64902 0.90505,-1.35119 1.45704,-1.99712c0.02521,1.86543 0.05917,3.74275 0.03247,5.6677c-0.00388,0.27967 -0.1248,0.58052 -0.31971,0.83849c0.29017,0.89114 0.5393,1.78429 0.77153,2.6296c0.4142,1.50769 0.28809,3.07677 0.03938,4.65324c-0.16742,0.07308 -0.33279,0.13556 -0.49617,0.18762c0.06383,0.51516 0.12799,1.03019 0.19412,1.54476c-0.1232,0.68681 -0.24063,1.37127 -0.31761,2.04889c-0.17068,1.50246 -0.35499,3.03202 -0.56319,4.5741c-0.01072,-0.20955 -0.02557,-0.4177 -0.04618,-0.62391c-0.10696,-1.07046 -0.36387,-4.20955 -0.59865,-7.34815c-1.52728,-0.05161 -2.87548,-1.09668 -4.11255,-2.96255c-0.18016,0.29563 -0.36297,0.59076 -0.5406,0.88788c1.77975,3.62369 2.34061,10.10896 2.56342,11.75854c0.19855,1.47005 0.38457,2.94272 0.56099,4.41722c0.47087,-1.29628 1.04415,-2.65272 1.83786,-3.78054c-0.37999,2.50797 -0.83604,5.02935 -1.41155,7.50245c0.12347,1.12321 0.24283,2.24707 0.35936,3.37124c0.39333,-3.01554 0.95024,-5.94019 1.60793,-8.569c-0.17235,-0.89517 -0.18823,-1.83945 -0.19088,-2.78655c0.40894,-0.50071 0.8715,-0.94027 1.40034,-1.28777c-0.00495,-0.60397 -0.01005,-1.24891 -0.01819,-1.95295l0.1343,-0.20489c0.06723,0.50838 0.13439,1.01697 0.20135,1.52576c0.52753,-1.24622 1.19455,-2.54887 1.99612,-3.64505c-0.03249,-0.3579 -0.06746,-0.71574 -0.10475,-1.07353l1.88501,-2.87593c0.15987,0.2715 0.32362,0.5411 0.49021,0.8093c-0.29492,-1.17436 -0.61064,-2.34061 -0.95101,-3.49586c-0.08712,-0.29568 -0.18947,-0.58706 -0.30168,-0.87559c-0.60257,0.6707 -1.18184,1.2319 -1.73974,1.68854c-0.64646,-4.2329 -1.5153,-8.45505 -2.33154,-12.65848c1.11711,-1.29757 2.49016,-2.35854 4.04246,-2.28741c0.51396,0.02355 1.00747,0.19744 1.47881,0.48764c0.00204,0.33291 0.00448,0.6477 0.0079,0.94056c-0.0165,0.41182 -0.00005,2.93032 -0.16387,5.55846c0.0447,0.01792 0.08838,0.04043 0.13092,0.06807c0.52866,0.34347 0.15499,1.25184 0.20092,1.88059c0.1743,2.38595 0.28598,4.77621 0.45968,7.16221c0.05084,0.6985 0.13416,1.39786 0.23421,2.09758c0.16937,-0.03967 0.34175,-0.06736 0.51711,-0.08214c1.33695,-0.11268 2.47851,-0.01036 3.45689,0.26354c0.25714,2.69175 0.40958,5.3815 0.41654,8.03893c2.10014,3.40028 2.87131,9.6711 3.05444,11.10433c0.454,3.55306 0.59361,7.62565 0.07144,11.544c-0.12665,0.11378 -0.25818,0.21773 -0.39486,0.31155c0.00458,0.63206 -0.007,1.40447 -0.0525,2.25848c-0.50383,2.31178 -1.27857,4.51232 -2.40139,6.45197c-0.80322,1.38754 -2.24338,2.29105 -3.36507,3.43658c-0.03685,-0.00093 -0.07379,-0.00156 -0.11082,-0.00192c0.33684,-1.02843 0.61611,-2.07268 0.79739,-3.13626c0.50524,-2.96408 0.89209,-5.83525 1.1566,-8.70706c-0.42289,-0.13398 -0.87049,-0.31068 -1.34454,-0.53204c-0.06379,0.34091 -0.12867,0.6814 -0.19445,1.02135c0.16643,1.82591 0.71456,3.64496 0.51299,5.46293c-0.048,0.4329 -0.81927,0.3709 -1.25477,0.3645c-0.16234,-0.00239 -0.3116,-0.01588 -0.44869,-0.03965c-0.0491,0.23043 -0.09816,0.46036 -0.14713,0.68975c-0.40307,1.88831 -0.71479,3.48447 -1.14924,5.05292c-0.41854,0.05826 -0.8385,0.12104 -1.25466,0.17173c0.00444,0.01256 0.00889,0.02516 0.01335,0.03778c0.12118,0.34284 0.23425,0.70377 0.35471,1.06495c-0.21966,-0.07133 -0.44468,-0.15314 -0.67519,-0.24587c-0.09494,-0.03819 -0.18596,-0.08118 -0.27328,-0.12864c-0.06952,1.49131 -0.16836,2.98195 -0.29977,4.47168c-0.14511,0.27651 -0.29841,0.55902 -0.46066,0.84846c-0.04379,0.07812 -0.08838,0.15697 -0.13376,0.2365c0.18193,-0.16449 0.36226,-0.33129 0.54112,-0.49985c-0.00853,0.09076 -0.01718,0.18152 -0.02596,0.27227c-0.12724,1.31572 -0.2045,2.71221 -0.35071,4.11407c-0.60055,-0.31607 -1.21591,-0.7211 -1.84505,-1.22302c-1.24568,1.78729 -2.78292,3.61157 -4.53787,4.99619c1.817,-0.72553 3.57482,-1.39311 5.24569,-2.60952c0.45511,-0.33132 0.82588,-0.72085 1.13598,-1.15167c-0.21652,2.07044 -0.58421,4.15214 -1.48621,6.00229c-0.39738,0.18838 -0.80163,0.36284 -1.21321,0.5219c-2.81496,1.08784 -6.33385,1.55541 -9.67201,1.8979c-0.44619,-0.70094 -0.83846,-1.46951 -1.23791,-2.22908c0.41124,0.05699 0.82263,0.1025 1.23278,0.07487c0.5784,-0.03896 1.02978,-0.1356 1.4214,-0.27283c-0.94133,0.1857 -1.83779,0.22301 -2.68882,0.13216c-0.41702,-0.79146 -0.84375,-1.57072 -1.34946,-2.2509c-0.20079,-0.86529 -0.3936,-1.72985 -0.57836,-2.59384c2.41682,-0.2292 5.02654,-0.46599 7.37506,-0.96518c0.0559,0.26038 0.11253,0.52078 0.16992,0.7812c0.01086,0.05597 0.02362,0.11207 0.03791,0.16829c0.192,-0.35549 0.36387,-0.71702 0.45244,-1.09869c0.77674,-0.18656 1.51863,-0.40594 2.20806,-0.66803c0.93802,-0.35658 1.82913,-0.84531 2.68195,-1.42184c-0.01342,-0.01226 -0.02685,-0.02457 -0.04029,-0.03692c-0.79136,-0.72728 -1.3512,-1.65326 -1.81621,-2.64339c-0.6128,1.2361 -1.45383,2.18578 -2.62072,2.49298c0.28146,-1.85198 0.44809,-3.75345 0.53523,-5.66341c0.15528,-0.28773 0.30649,-0.58004 0.45372,-0.87663c-0.08495,-0.23531 -0.16566,-0.46756 -0.24246,-0.69718l-0.17105,0.52009c0.01002,-0.32395 0.01794,-0.64792 0.02393,-0.97173c-1.25763,-3.96712 -1.37025,-7.20488 -1.96166,-11.90223c0.0245,-2.31535 0.05999,-4.58895 0.19294,-6.83861c-0.5301,1.27123 -1.34791,3.10856 -2.38027,4.99372c0.12903,0.9882 0.26155,1.97704 0.39654,2.9668c0.39444,1.89457 0.73334,3.80174 1.15457,5.69024c0.36277,0.84622 0.71506,1.6897 0.81691,2.55245c0.40529,0.84781 0.8312,1.6874 0.68495,2.57354c-0.13842,0.83871 -1.51058,0.59202 -2.34253,0.13947c0.24373,1.74193 0.5226,3.48306 0.83563,5.22415c-1.98156,-0.84243 -4.23291,-1.36297 -5.54962,-2.99866c-0.31317,-0.74843 -0.59836,-1.56498 -0.85834,-2.41244c-0.04683,0.24064 -0.09629,0.48066 -0.14826,0.71992c-0.08456,-0.19268 -0.16282,-0.38877 -0.23568,-0.58774c-0.2477,0.29594 -0.50742,0.57173 -0.77994,0.82446c0.13539,0.81915 0.25775,1.54199 0.39768,2.19501c-0.15322,0.52758 -0.31673,1.04821 -0.4888,1.55993c-0.18205,-1.08494 -0.35106,-2.16954 -0.50691,-3.25411c-0.88966,0.66834 -1.90437,1.1021 -3.0673,1.21845c0.50927,0.85202 0.88743,1.76909 1.02848,2.77632c0.0992,0.70834 0.13523,1.38297 0.11377,2.02402l1.0868,0.69882c-0.15476,0.34969 -0.31211,0.69151 -0.47128,1.02461c-0.28285,0.59192 -0.74553,1.50141 -1.32886,2.53028c-0.11368,0.07285 -0.2275,0.14488 -0.34147,0.216c-0.05133,-0.06344 -0.10226,-0.12742 -0.15279,-0.19192c-0.09556,0.16047 -0.19613,0.31706 -0.3015,0.46975c-0.00021,0.00012 -0.00042,0.00025 -0.00063,0.00037c0.00016,-0.00006 0.00033,-0.00012 0.0005,-0.00018c-2.34879,3.4035 -7.07845,4.87423 -11.67457,4.46146c-0.34645,-0.61978 -0.46831,-1.33576 -0.42804,-2.09907c-0.3001,-0.24131 -0.581,-0.50865 -0.84398,-0.79757c-0.05644,0.01633 -0.11243,0.03232 -0.16795,0.04799c-0.86982,0.24549 -1.89277,0.37672 -2.99041,0.39858c-0.39696,0.32137 -0.81554,0.61144 -1.24967,0.86406c-0.60801,-0.30788 -1.188,-0.65856 -1.7312,-1.05184c-0.40385,-0.05691 -0.80848,-0.12637 -1.21066,-0.20819c-0.80564,0.79643 -1.7509,1.37763 -2.80983,1.47983c-0.96956,0.09357 -1.90405,-0.16183 -2.79883,-0.60097zM224.23635,195.06687c-0.1369,0.16655 -0.27297,0.32372 -0.40844,0.47158c-0.1246,-0.31949 -0.23574,-0.654 -0.33571,-1.00155c-0.90476,0.20496 -1.8941,0.12687 -2.97218,-0.3268c0.95032,0.67023 1.93669,1.26067 2.8782,1.76789c-0.74464,0.71 -1.47693,1.136 -2.231,1.28912c0.85682,1.09309 1.8784,2.05937 3.16468,2.80159c1.73658,1.00206 4.91008,0.92297 6.84982,1.26564c1.43385,0.2533 2.9351,0.37109 4.36686,0.10624c2.71347,0.05429 6.15256,1.02307 8.73504,0.89111c0.84095,-0.04297 1.60134,-0.5585 2.42015,-0.74167c-0.15946,-0.17742 -0.29372,-0.36637 -0.40488,-0.56521c-1.98589,-0.17836 -3.94685,-0.70835 -5.68005,-1.586c-0.06099,0.03549 -0.1223,0.07024 -0.18389,0.10424c-1.49666,0.82614 -3.39052,0.52383 -5.09996,0.54105c-1.53159,0.01543 -3.38743,-0.21305 -5.16521,-0.74724c-3.17097,0.20945 -4.91757,-0.97266 -5.94812,-2.92977c0.02307,0.01163 0.0461,0.0232 0.06908,0.03472c0.49236,0.24681 0.81491,0.86723 1.3613,0.93642c0.17561,0.02224 0.35016,0.0168 0.52413,-0.00593c-0.78767,-0.61506 -1.4423,-1.34635 -1.88897,-2.20537c-0.01718,-0.03304 -0.03413,-0.06639 -0.05085,-0.10005zM258.76935,196.06932c-0.04575,0.08068 -0.09223,0.16209 -0.13943,0.24415c0.41836,-0.16355 0.86414,-0.34533 1.34444,-0.54715c0.98318,-0.12643 2.05066,-0.22992 3.15868,-0.33499c-0.4554,-2.12958 -0.86189,-4.25564 -1.2184,-6.3804c-0.40796,1.2132 -0.86403,2.37635 -1.34515,3.4635l1.75433,1.12803c-1.20112,0.82187 -2.37117,1.66858 -3.55447,2.42686zM247.84771,164.39386c0.14818,1.23735 0.2145,2.46511 0.21415,3.62727c0.06948,-0.08414 0.13982,-0.16706 0.21102,-0.24871c-0.02358,-1.66862 -0.07231,-3.33385 -0.12996,-4.98988c-0.029,0.1753 -0.05647,0.33469 -0.08178,0.47608c-0.06811,0.38046 -0.13929,0.75881 -0.21342,1.13523zM215.90751,164.61881c0.13422,-0.48931 0.27486,-0.97673 0.42164,-1.46196l-0.63214,0.72607c0.32272,-1.52694 0.76709,-3.07054 1.30233,-4.6164c-0.20572,0.08495 -0.41336,0.16773 -0.62008,0.25155c0.16228,-0.75301 0.32202,-1.50649 0.47989,-2.26031c-0.81527,0.76925 -1.6524,1.51916 -2.48447,2.27355l-0.11397,-0.11417c-0.0224,0.09294 -0.04487,0.18587 -0.0674,0.27877c-0.64113,0.58248 -1.27808,1.16867 -1.8985,1.76947c-0.00539,-0.07217 -0.0107,-0.14434 -0.01591,-0.2165c-0.0022,0.07944 -0.0044,0.15889 -0.00663,0.23833c-0.10982,0.10648 -0.21913,0.21343 -0.32783,0.3209l0.04413,-3.318c-0.08904,0.40659 -0.16778,0.69355 -0.22989,0.80595c-0.42228,0.76418 -1.45452,0.9064 -2.29943,1.23963c0.6243,1.30499 1.28693,2.59444 1.91803,3.89667l-2.99261,3.196c0.30695,-0.13573 0.60377,-0.28003 0.86868,-0.45128l1.3687,-0.35597l1.17305,-1.513c0.10529,0.22471 0.20918,0.44997 0.31133,0.67595c-0.0077,0.1524 -0.01568,0.30481 -0.02397,0.45721l0.20435,-0.05315c0.2072,0.47027 0.406,0.94393 0.59327,1.42228c0.00318,0.56233 -0.04598,1.10716 -0.32726,1.57431c-0.28632,0.47551 -0.60099,0.93069 -0.93564,1.37156c0.2277,0.28144 0.45499,0.56313 0.67853,0.84698c0.28644,-0.36715 0.72805,-0.6314 1.13556,-0.91826c0.05236,-0.19968 0.11361,-0.3992 0.18086,-0.59864c0.03029,0.1334 0.05861,0.26726 0.08511,0.40155c0.06605,-0.05231 0.12982,-0.10613 0.19035,-0.16211l0.60008,0.20016c0.0394,-0.18484 0.07955,-0.36957 0.12035,-0.55418c-0.03554,-1.60314 0.55715,-3.40498 0.87544,-4.9976c0.08352,0.0971 0.16712,0.19415 0.25072,0.2912c0.01553,-0.05932 0.03116,-0.11862 0.04688,-0.17789c0.03277,-0.13318 0.06545,-0.26636 0.09801,-0.39952c0.00949,-0.02305 0.01897,-0.04612 0.02843,-0.06919zM228.91746,136.70046c-0.19637,0.77399 -0.38691,1.5495 -0.57247,2.32631c0.86414,-1.55531 1.84565,-3.09061 2.85358,-4.57011c0.22675,-0.19997 0.45715,-0.38985 0.69125,-0.56365c0.00402,-0.15209 0.00843,-0.30424 0.01325,-0.45643c1.32573,-1.89558 2.66051,-3.68189 3.8018,-5.27927l2.16431,-1.05892c-0.92979,1.96477 -1.64174,4.00508 -2.20907,6.08707c0.72913,0.26426 1.3275,0.65392 1.81588,1.13832c0.01457,-0.04011 0.0294,-0.08014 0.04451,-0.1201c0.30984,-0.81936 1.04472,-1.38756 1.68033,-2.01442c0.02271,-1.97081 0.11966,-3.94777 0.31377,-5.89591l1.07283,-0.5249c-0.33863,2.00817 -0.59808,4.05462 -0.78011,6.16706l0.10149,0.07774c0.45324,-0.94647 0.88877,-1.90568 1.30242,-2.87553c0.34526,-1.3679 0.64653,-2.74595 0.92811,-4.12856l0.33298,-0.16291c0.02919,0.11541 0.05918,0.2307 0.08989,0.34588c0.05669,-1.16408 0.12902,-2.35459 0.2213,-3.47451c0.21196,-1.10625 0.42364,-2.21259 0.64739,-3.31624c-0.10732,0.12834 -0.21583,0.25596 -0.32445,0.38357c0.10367,-0.69185 0.22166,-1.28644 0.35596,-1.73922l-0.96163,0.36631c-0.32026,1.10665 -0.61434,2.21304 -0.88256,3.32419c-0.59449,0.89558 -1.18269,1.79697 -1.74486,2.7135c0.29161,-1.88938 0.68914,-3.73382 1.21472,-5.49956l-3.452,1.31497c0.01324,-0.07529 0.02607,-0.15071 0.03853,-0.22622c-0.14886,0.21003 -0.29782,0.42 -0.44688,0.6299c-1.74239,2.88823 -3.4154,5.81523 -5.01713,8.78c0.06841,-0.73531 0.14728,-1.46782 0.23706,-2.19579c-0.62225,1.46868 -1.23988,2.942 -1.85715,4.41934c-0.19771,0.64946 -0.38959,1.30046 -0.57616,1.95285c-0.25046,0.48955 -0.49901,0.98011 -0.74562,1.47164c-0.37591,1.29868 -1.02146,2.50931 -1.66441,3.72241c-0.16853,0.41126 -0.33714,0.83422 -0.5065,1.26646c0.44207,-0.79854 0.9379,-1.55422 1.59741,-2.17291c0.0736,-0.06905 0.14767,-0.13994 0.22222,-0.21237zM215.53242,164.71849c-0.01542,0.08459 -0.03178,0.16984 -0.04894,0.2557c-0.07611,-0.08848 -0.15213,-0.17701 -0.22801,-0.26563c-0.15568,0.70244 -0.3139,1.4043 -0.47606,2.10526c-0.25354,1.09595 -0.79988,2.18297 -1.16726,3.27254c-0.1033,-0.45482 -0.22965,-0.90423 -0.38576,-1.34659c-0.1101,-0.31195 -0.2258,-0.62162 -0.34628,-0.92935c-0.00126,-0.2226 -0.01072,-0.44793 -0.01723,-0.67228l2.25523,-2.59032c-0.48113,-0.56435 -0.9543,-1.13365 -1.3999,-1.7201l-1.18429,1.5275c0.05287,0.64443 0.10169,1.2887 0.13893,1.93252l-0.38601,0.10039c-0.05946,-0.13496 -0.11962,-0.26964 -0.18039,-0.40407c0.01928,-0.38189 0.03678,-0.76377 0.05284,-1.14567l-0.36417,0.46972c-0.13718,-0.29277 -0.27671,-0.58459 -0.41782,-0.87575l0.83143,-0.88794c0.02383,-0.68565 0.04433,-1.37137 0.06356,-2.05721c0.00751,-0.00728 0.01502,-0.01456 0.02254,-0.02183c0.04552,0.60897 0.09748,1.21819 0.14952,1.82742l1.15886,-1.23763c0.20297,-0.78488 0.39903,-1.57146 0.59012,-2.35926c0.06043,-0.05489 0.12089,-0.10976 0.18137,-0.1646l0.62274,0.62385c0.43224,-0.24442 0.90456,-0.44355 1.38183,-0.63709c-0.00211,0.00977 -0.00421,0.01955 -0.00632,0.02932c-0.34028,1.57828 -0.67606,3.15763 -1.02322,4.73442l0.34728,-0.39889c-0.05899,0.27911 -0.11392,0.55767 -0.1646,0.83558zM226.6553,140.22916c-1.03926,2.71155 -2.12682,5.68762 -3.40966,8.38442c0.46671,-0.54779 0.9657,-1.0482 1.49203,-1.46064c0.28895,-0.56064 0.60383,-1.13383 0.94558,-1.6923c0.18095,-0.75532 0.42,-1.51764 0.70649,-2.28275c0.01731,-0.39658 0.01987,-0.78839 -0.00583,-1.17105c0.08578,-0.59705 0.1761,-1.18955 0.27138,-1.77768zM254.93589,121.27784c0.09882,-0.37443 0.19831,-0.7477 0.29833,-1.11975c0.68188,-1.47029 1.09481,-3.10756 1.88967,-4.5077c-0.1954,-0.25951 -0.38043,-0.53645 -0.55387,-0.83106c-0.27339,0.17985 -0.55138,0.36561 -0.83285,0.54958c0.09132,-0.49 0.19352,-1.02518 0.30376,-1.58707c-0.10368,-0.23624 -0.20089,-0.48145 -0.2912,-0.73571c0.00921,0.79189 -0.08285,1.61475 -0.1765,2.42942c-0.86407,0.55912 -1.75873,1.08756 -2.65234,1.36544c0.656,1.07264 1.23243,2.18058 1.61433,3.37479c0.05716,0.17874 0.10844,0.35864 0.1544,0.5396c0.23141,-0.99899 0.48771,-1.99757 0.6296,-2.9791c0.01992,-0.13778 0.04848,-0.31883 0.08467,-0.53662c-0.00323,0.05969 -0.00606,0.11916 -0.00841,0.17839c-0.0348,0.8746 -0.21244,2.26897 -0.45959,3.85979zM255.39476,110.98266c0.02954,-1.18399 0.32756,-2.6835 0.78006,-4.13647c-0.33196,0.4097 -0.66127,0.84091 -1.01212,1.29357c-0.22517,0.2905 -0.55595,0.71044 -0.90604,1.06636c0.26143,0.31907 0.52199,0.67794 0.78116,1.0795c0.14423,0.22346 0.26187,0.45633 0.35694,0.69703zM269.09168,150.80847c0.27663,0.27764 0.53827,0.56616 0.77878,0.87005c-0.40761,-3.43079 -0.84514,-6.85951 -1.294,-10.28856c-0.07804,-0.59618 -0.157,-1.19229 -0.23731,-1.78823c0.00003,-0.00041 0.00007,-0.0008 0.0001,-0.0012c-0.00007,0.00017 -0.00013,0.00033 -0.0002,0.0005c-0.09483,-0.70362 -0.19153,-1.407 -0.29086,-2.11002c-0.08067,1.19073 -0.16323,2.38096 -0.24804,3.57051c-0.39844,1.11413 -0.77206,2.23713 -1.12525,3.36702c0.26286,0.46084 0.52107,0.92417 0.77296,1.39091c-0.02207,0.28675 -0.0443,0.57344 -0.06669,0.86008l-0.99291,1.8249c0.22596,0.1829 0.45362,0.36456 0.68064,0.54669c0.1657,-1.02221 0.31896,-2.04677 0.46454,-3.07249c0.24171,0.45125 0.47737,0.90576 0.70545,1.36434c0.46274,0.93037 0.71915,2.15272 0.85278,3.4655zM264.02799,186.75178c-0.01122,-0.01394 -0.02237,-0.02796 -0.03346,-0.04206c-0.39965,-0.50844 -0.7156,-1.06363 -0.97314,-1.65045c-0.17852,0.82198 -0.38649,1.63479 -0.61794,2.43173c0.47449,2.21433 1.15103,3.62582 3.2228,5.26719c0.77868,0.61692 2.00603,-0.5261 2.69398,-1.28402c-0.6506,-0.33052 -1.35858,-0.79199 -2.12926,-1.40376c-0.84014,-0.66691 -1.55437,-1.86414 -2.16298,-3.31862zM276.61602,144.98517l2.09272,-3.19283c-0.16512,-1.5844 -0.37564,-3.16772 -0.61721,-4.74953c-0.63988,0.52373 -1.25166,0.90992 -1.83825,1.16598c-0.09109,0.57736 -0.19861,1.15569 -0.30206,1.73237c0.01869,0.1455 0.03755,0.29098 0.0566,0.4364c0.2009,1.53375 0.40485,3.06973 0.6082,4.60761zM260.09265,125.8183c0.03733,-0.22596 0.07351,-0.45212 0.1087,-0.67846c-0.11343,0.005 -0.22211,0.01591 -0.3221,0.0376l-0.93479,0.00899c0.15664,0.95874 0.36274,1.9117 0.55417,2.86628c0.10706,-0.57439 0.21157,-1.03653 0.31056,-1.34472c0.09512,-0.29617 0.18944,-0.59315 0.28346,-0.88968zM254.58666,186.4094c-0.11141,-0.0429 -0.2238,-0.08808 -0.33719,-0.13559c-0.20875,1.016 -0.44353,2.02911 -0.70694,3.03921c0.08765,-0.01237 0.17521,-0.02487 0.26254,-0.03776c0.33043,-0.75305 0.63028,-1.51701 0.89476,-2.29043c-0.03088,-0.15679 -0.06162,-0.31328 -0.0924,-0.46937c-0.00697,-0.03535 -0.0139,-0.07071 -0.02077,-0.10606zM280.91731,169.4526c-0.00099,0.06524 -0.00192,0.13041 -0.00281,0.19552c-0.01841,1.34844 0.125,2.69531 0.21771,4.04224c0.24012,-0.91602 0.45082,-1.82148 0.62811,-2.72532c-0.01398,-0.30589 -0.03533,-0.63625 -0.06303,-0.98685c-0.22126,-0.14195 -0.44713,-0.29145 -0.67771,-0.44861c-0.03418,-0.02329 -0.06826,-0.04898 -0.10226,-0.07698zM268.4136,131.90729c-0.05466,0.8623 -0.11003,1.72449 -0.16625,2.58649c0.16696,0.12259 0.32711,0.26762 0.48077,0.43259c0.01709,-0.11926 0.03524,-0.23838 0.05457,-0.35736c0.07038,-0.43322 0.10657,-0.91219 0.18372,-1.37198c-0.08601,-0.1816 -0.17155,-0.36735 -0.25665,-0.55714c-0.10669,-0.23795 -0.20526,-0.48234 -0.29616,-0.73259zM252.8304,107.8467c0.06714,0.04708 0.13427,0.09641 0.2014,0.14805c0.12893,-0.1811 0.27758,-0.35525 0.4301,-0.51868c0.17254,-0.35695 0.37016,-0.7434 0.59053,-1.14545c-0.31704,0.36762 -0.62999,0.73437 -0.912,1.10933c-0.10261,0.13644 -0.20597,0.27201 -0.31003,0.40675zM212.67285,166.28775l0.20831,-0.05418c-0.03056,0.29334 -0.02717,0.59803 -0.01828,0.90457l-0.14204,0.16314c-0.01208,-0.33769 -0.02844,-0.67555 -0.04799,-1.01353zM226.10809,140.99024c0.21052,-0.40014 0.41318,-0.80779 0.62131,-1.21153c0.02093,-0.12529 0.04208,-0.25039 0.06348,-0.37529c-0.13476,0.2816 -0.26323,0.56536 -0.38217,0.85238c-0.10137,0.24464 -0.20224,0.48945 -0.30262,0.73444zM283.04576,185.43206c-0.11843,0.01005 -0.23909,0.01613 -0.362,0.0181c0.23456,-0.60575 0.45713,-1.21644 0.65901,-1.83281c-0.67016,-0.00645 -1.369,0.07861 -2.07184,0.17643c-0.13022,0.4701 -0.27146,0.93771 -0.42949,1.40996c-0.14974,-0.04004 -0.30209,-0.08515 -0.45712,-0.13549c0.08018,0.24042 0.16363,0.48094 0.25491,0.71632c-0.38477,1.06328 -0.86458,2.16398 -1.50315,3.38085c-0.0172,0.19505 -0.03497,0.39009 -0.0533,0.58511c0.74526,-0.70234 1.4648,-1.43516 2.16644,-2.15842c0.05798,-0.11896 0.11865,-0.23587 0.18239,-0.35047c0.02384,0.02943 0.04815,0.05842 0.07293,0.08696c0.24501,-0.25307 0.48793,-0.50436 0.72908,-0.75213c0.09942,-0.24235 0.19778,-0.48542 0.29449,-0.72926c0.029,-0.02558 0.0584,-0.05086 0.08821,-0.07583c0.14025,-0.11745 0.2835,-0.2304 0.42944,-0.33933zM265.0955,200.34187c-0.01153,-0.02194 -0.02308,-0.04387 -0.03463,-0.06579c-2.5963,-0.27714 -4.7698,-1.74697 -6.50489,-3.83454c-1.17175,2.02153 -2.76104,4.39508 -4.35101,5.7243c0.40171,0.05348 0.80344,0.10167 1.2052,0.14035c2.57451,0.24782 5.34187,-1.75542 7.78621,-2.08331c0.62925,-0.08441 1.264,0.03098 1.89912,0.11899zM271.93809,107.8233l0.46471,-0.73866c0.03062,-0.28935 0.0707,-0.5526 -0.01743,-0.39648c-0.18658,0.33051 -0.33248,0.71586 -0.44727,1.13515zM273.77597,121.52903c-0.43101,0.19282 -0.88761,0.35144 -1.35799,0.47275c0.69182,0.96568 1.05668,2.11298 1.29936,3.32197c0.02445,-0.63362 0.04883,-1.26725 0.07251,-1.9009c-0.0073,-0.6458 -0.01088,-1.27547 -0.01388,-1.89382zM272.1164,186.37634c0.01601,-0.35103 0.02934,-0.70236 0.04021,-1.05371l-0.72935,2.21766c0.24148,-0.37494 0.46971,-0.75789 0.68162,-1.15002c0.00251,-0.00465 0.00502,-0.00929 0.00752,-0.01393zM268.18799,141.08842c-0.21155,1.62981 -0.42338,3.26147 -0.65455,4.89022c-0.02844,-0.0531 -0.05697,-0.10617 -0.08558,-0.15918c0.12196,-1.58448 0.23911,-3.1706 0.35228,-4.75793c0.17473,-0.4886 0.35425,-0.97548 0.53891,-1.46049c0.00003,0.00024 0.00007,0.00047 0.00009,0.00071c-0.03945,0.49684 -0.08704,0.99274 -0.15115,1.48668zM266.9283,130.51889c-0.16702,1.16544 -0.40138,2.29789 -0.59071,3.26769c0.38472,0.08528 0.78855,0.19937 1.21243,0.34426c-0.14411,-0.92297 -0.29476,-1.84488 -0.4536,-2.76539c-0.04889,-0.28333 -0.10598,-0.56535 -0.16812,-0.84656zM271.58117,192.03975c-0.46733,0.12303 -0.98694,0.14302 -1.56508,0.03707c0.15699,0.79636 0.32103,1.59278 0.49202,2.38934c0.22256,-0.0473 0.44279,-0.09697 0.66027,-0.1492c0.00405,-0.01747 0.00793,-0.03499 0.01163,-0.05254c0.15415,-0.73161 0.28708,-1.47407 0.40116,-2.22466zM258.32864,178.01363c-0.98482,-0.6125 -1.86426,-2.87614 -2.60471,-5.60868c-0.02544,0.96519 -0.06323,1.92839 -0.11545,2.88949c-0.15851,-1.05794 -0.41342,-2.09336 -1.05849,-2.90148c-0.17373,-0.21765 -0.35371,-0.25607 -0.53411,-0.16916c0.28999,1.18831 0.60881,2.36893 0.9628,3.53912c0.17864,0.59051 0.29067,1.22577 0.47678,1.82085c-0.13588,1.70145 -0.32253,3.39602 -0.57164,5.08314c0.23184,0.27913 0.44861,0.5738 0.64987,0.88171c0.02267,0.02436 0.04538,0.04874 0.06811,0.07316c0.31081,-1.61095 0.44949,-3.25214 0.37663,-4.9117c0.03433,0.04914 0.07029,0.09733 0.108,0.14451c0.39802,0.49796 1.20065,0.71078 1.8237,0.57587c0.3546,-0.07678 0.22808,-0.68936 0.32066,-1.04017c0.0331,-0.12543 0.06567,-0.25099 0.09784,-0.37667zM247.4838,134.3286c-0.20148,0.53796 -0.41075,1.07119 -0.62784,1.5998c0.01296,1.22348 0.07458,2.44582 0.15168,3.66758c0.09251,-0.44991 0.16193,-0.79884 0.18608,-1.00514c0.16565,-1.41488 0.24987,-2.83712 0.29008,-4.26223zM238.379,126.07155c0.46452,-0.89232 0.96804,-1.76371 1.49437,-2.62181c-0.1448,0.93817 -0.26349,1.88742 -0.35876,2.84362l-1.64542,0.80504c0.16311,-0.34467 0.33291,-0.68701 0.50982,-1.02684zM241.88066,120.34175c0.36515,-0.54785 0.79628,-1.0522 1.2258,-1.5568c-0.12837,0.85667 -0.23476,1.86245 -0.32294,2.93267c-0.21042,1.09821 -0.42111,2.19631 -0.64416,3.29154l-1.55191,0.75929c0.28653,-1.69923 0.62977,-3.37104 1.03078,-5.03222c0.08737,-0.13161 0.17487,-0.2631 0.26244,-0.39449zM221.85687,180.75005c0.00339,0.21413 0.00731,0.42873 0.01167,0.64383c0.61648,-2.38879 1.10698,-4.85362 1.50915,-7.33746c-0.15141,0.06145 -0.30301,0.11962 -0.45469,0.17428c-0.28209,1.82346 -0.43604,3.67006 -0.80755,5.47749c-0.06725,0.32717 -0.11631,0.72819 -0.25859,1.04185zM236.21642,172.24016c-0.04577,0.0348 -0.09139,0.07064 -0.13687,0.10748c-0.11387,0.40202 -0.22571,0.80475 -0.33554,1.20822c-0.17264,0.71395 -0.33977,1.429 -0.50301,2.14431c0.33347,-1.0377 0.61057,-2.09699 0.89308,-3.14719c0.02797,-0.104 0.05542,-0.20828 0.08234,-0.31282zM250.85702,180.04454c1.17664,0.30215 2.2122,0.881 3.09184,1.65664c-0.2552,-3.13774 -0.20123,-6.28952 -0.0009,-9.43885c-0.66379,0.43238 -1.32339,2.46971 -1.68886,3.42695c-0.5437,1.42408 -1.01833,2.8788 -1.40208,4.35526zM255.8221,176.95819c0.07924,0.58588 0.13079,1.17002 0.15633,1.7519c-0.23727,-0.33952 -0.39708,-0.72372 -0.52298,-1.12631c0.06083,-0.76175 0.11149,-1.52488 0.15302,-2.28934c0.08366,0.55835 0.14047,1.12296 0.21362,1.66375zM249.09555,187.76419c-0.07914,0.27285 -0.16233,0.54411 -0.25034,0.81342c0.2925,0.56783 0.65931,1.27715 0.94685,2.00471c0.32874,-0.71699 0.56864,-1.45487 0.29538,-1.93331c-0.10698,-0.11375 -0.20417,-0.21728 -0.28658,-0.3076c-0.28078,-0.23827 -0.51395,-0.42912 -0.70532,-0.57722zM247.77664,179.82938c0.03856,-0.33135 0.07453,-0.66313 0.10804,-0.99528c-0.12008,0.33906 -0.25108,0.66468 -0.39229,0.977c0.09452,0.00463 0.18928,0.01077 0.28425,0.01829zM245.17951,166.66344c-0.129,-0.92858 -0.2567,-1.87792 -0.39601,-2.8589c-0.00626,0.01881 -0.01249,0.03756 -0.01869,0.05623c-0.01739,1.01252 -0.06086,2.02517 -0.13284,3.03419c0.13954,0.15345 0.27923,0.30665 0.42074,0.45681c0.04278,-0.22925 0.08507,-0.4587 0.1268,-0.68833zM223.82791,195.53844c0.11844,0.30369 0.24904,0.5938 0.39375,0.86863c-0.26914,-0.13566 -0.54432,-0.27872 -0.82345,-0.42909c0.1427,-0.13606 0.28585,-0.28255 0.4297,-0.43954zM244.94341,198.03506c-0.3825,-0.43312 -0.72622,-0.91223 -1.03525,-1.42299c-0.04221,-0.02059 -0.08424,-0.04143 -0.12608,-0.06254c-0.4395,0.61099 -0.94966,1.17821 -1.51118,1.68211c0.69399,0.02389 1.65806,-0.07341 2.67251,-0.19658zM246.01151,197.90107c0.00614,-0.02869 0.01245,-0.05741 0.01893,-0.08616c-0.14201,0.04773 -0.28254,0.09344 -0.42121,0.13721c0.13421,-0.017 0.26846,-0.03408 0.40227,-0.05104zM258.49391,196.36637c-0.02208,-0.02692 -0.04409,-0.05393 -0.06602,-0.08104c-0.15112,0.0943 -0.30252,0.18699 -0.4543,0.27783c-0.00005,0.00007 -0.00009,0.00013 -0.00013,0.00019c0.16889,-0.06239 0.34218,-0.128 0.52045,-0.19698zM231.19856,134.45666c-0.80549,0.71035 -1.56497,1.54799 -2.2811,2.2438c0.34596,-1.36357 0.71002,-2.7224 1.0969,-4.07523c0.71642,-1.40031 1.44857,-2.79247 2.19625,-4.17641c-0.15394,1.65488 -0.25484,3.32399 -0.30753,4.98776c-0.2355,0.33673 -0.47072,0.6769 -0.70451,1.02008zM221.91828,175.49456c0.1495,-0.35993 0.29773,-0.71938 0.44478,-1.0785c-0.13046,0.03927 -0.26086,0.07573 -0.39113,0.10921c-0.02061,0.32289 -0.03841,0.64594 -0.05365,0.96929zM255.40389,117.23965c0.03108,-0.57332 0.10064,-1.16652 0.16934,-1.76411c0.05477,-0.03544 0.10942,-0.071 0.16394,-0.10663c-0.14019,0.75223 -0.25472,1.39803 -0.33328,1.87074zM269.61865,189.97765c0.0426,-0.05139 0.08506,-0.10288 0.12737,-0.15451c-0.0559,-0.02452 -0.11205,-0.04874 -0.16842,-0.0727c0.01362,0.07574 0.0273,0.15147 0.04104,0.22721zM278.71144,194.13969c-0.00178,-0.00093 -0.00356,-0.00187 -0.00534,-0.00281c-0.00041,0.004 -0.00083,0.00799 -0.00125,0.01199c0.00221,-0.00306 0.0044,-0.00612 0.0066,-0.00919zM256.43799,102.636c-0.05102,0.04695 -0.10201,0.09397 -0.15295,0.14106c-0.02639,0.117 -0.05783,0.23215 -0.09388,0.34558c0.02909,-0.03508 0.05831,-0.07 0.08767,-0.10475c0.05343,-0.12677 0.10644,-0.25411 0.15917,-0.3819zM259.76424,112.2096c-0.0509,0.06059 -0.10207,0.12049 -0.15353,0.17966c-0.02424,0.09426 -0.0476,0.18875 -0.07014,0.28347c0.06244,-0.06324 0.12467,-0.12526 0.1867,-0.18605c0.01228,-0.09235 0.0246,-0.18471 0.03698,-0.27708zM275.09958,148.43078c-0.00175,-0.62543 0.00228,-1.25208 -0.02917,-1.86664c-0.10534,0.78026 -0.2168,1.56372 -0.3357,2.34849c0.11673,-0.16587 0.23823,-0.32679 0.36487,-0.48185zM280.63923,185.78458c0.07046,-0.1947 0.13773,-0.38815 0.2022,-0.58083c0.66445,0.17768 1.27724,0.25547 1.84233,0.24642c-0.05134,0.13259 -0.10325,0.26494 -0.15565,0.39706c-0.453,0.39969 -0.80651,0.87305 -1.0965,1.39443c-0.33942,-0.41881 -0.58594,-0.92478 -0.79237,-1.45708zM275.72685,124.21358c0.0009,0.06871 0.00182,0.13743 0.00275,0.20617c0.01011,-0.01183 0.02023,-0.02363 0.03038,-0.03543c-0.01105,-0.05692 -0.02209,-0.11383 -0.03313,-0.17074zM258.70798,119.72721c0.1261,-0.74908 0.2414,-1.50006 0.35019,-2.25257c-0.05984,-0.03903 -0.11928,-0.07906 -0.17829,-0.12009c-0.07184,0.78906 -0.13286,1.58055 -0.1719,2.37266zM226.93885,120.19573l0.12584,-2.28814c-0.40571,0.08504 -0.81275,0.16691 -1.21825,0.25245c0.16046,0.93491 0.40359,1.86627 0.63693,2.79806c0.14791,-0.24823 0.30008,-0.50299 0.45548,-0.76237zM224.65863,163.58802c-0.18879,0.35313 -0.37458,0.70763 -0.55562,1.06432c0.17083,-0.14588 0.33558,-0.28757 0.49487,-0.42593c0.02053,-0.21325 0.04078,-0.42605 0.06075,-0.63839zM224.07739,169.06453c-0.25787,0.94216 -0.49568,1.89478 -0.71103,2.86006c0.17329,-0.43765 0.34504,-0.87531 0.51539,-1.31325c0.06815,-0.51609 0.13325,-1.03186 0.19564,-1.54681z" fill="#f9dfe0" stroke="none" stroke-width="0.5" stroke-linecap="butt"/><path d="M205.75251,171.69556c0.22,0.73101 1.07535,1.13051 1.37141,1.83416c1.64953,3.92047 -0.0263,9.36547 0.91016,13.52014c0.6422,2.84918 3.69909,4.99753 2.91893,8.29811c0.05676,0.35082 0.0947,0.7298 0.1117,1.14113c0.20702,5.00944 -4.88806,7.46522 -9.14263,6.10511c-1.17051,-0.37419 -2.27873,-1.91638 -3.41048,-2.15697c-5.06278,-1.07622 -6.50503,-4.24635 -8.93923,-8.5175c-5.93256,-10.4095 -3.20238,-21.2583 -4.62627,-32.74088c-1.13466,-9.15013 0.80281,-16.56451 3.03528,-25.40449c0.79961,-3.16626 0.66069,-6.65187 1.71374,-9.78574c0.83174,-2.47523 3.03008,-3.98555 4.0586,-6.27806c1.10799,-2.46964 1.57988,-6.46622 2.39933,-9.23094c0.40643,-1.37121 2.27605,-2.29189 2.66822,-3.43953c2.26287,-6.62212 14.9231,-19.68617 21.53927,-22.61564c5.2058,-2.305 8.57326,-1.0547 12.75695,-2.03641c4.28919,-1.00646 8.70588,-3.54495 13.16261,-3.94893c4.42383,-0.401 15.75885,1.49393 19.81432,3.29404l0.28118,-0.12668c1.95258,0.78752 4.14172,0.59867 5.84142,2.35598c1.51013,1.56131 0.12598,3.43931 0.7718,5.13673c0.45546,1.19709 2.83785,2.25922 3.68025,3.38733c1.22731,1.64356 1.69087,3.72815 2.56485,5.55563c0.64208,1.34258 3.48157,2.18013 4.57646,3.0575c2.19068,1.75548 3.57801,4.91375 5.18575,7.18197c1.94661,2.74629 1.85486,6.37652 3.45978,9.2328c1.84927,3.29117 5.23023,5.31097 7.02044,8.66772c2.04296,3.83069 1.41298,7.74835 2.23463,11.82142c1.08597,5.3834 4.12116,10.46812 5.92045,15.50576c0.84298,2.36017 0.86248,11.23582 0.77186,14.31599c-0.14453,4.91305 -0.02321,10.32003 -2.40213,14.85258c-0.54389,1.03627 -0.28581,4.09089 -0.64263,5.36304c-2.18224,7.78035 -5.48817,13.36694 -13.62805,15.54635c-4.46979,1.19676 -7.6886,-1.49281 -9.56293,-5.32778c-0.1963,-0.40165 0.10867,-2.14951 -0.03491,-2.40044c-0.3979,-0.69539 -1.64773,-0.76828 -1.84039,-1.54595c-0.01821,-0.07352 0.69082,-5.40807 1.0418,-6.21189c0.61118,-1.39971 2.55739,-2.55853 3.15043,-4.1153c1.32089,-3.46741 0.78003,-6.78997 1.13844,-10.22282c0.37507,-3.59246 1.60126,-6.87336 1.63014,-10.21281c0.00811,-0.93741 0.15852,-8.69031 -0.17559,-8.98569c-0.88668,-0.78387 -2.19543,-1.93843 -2.2976,-2.99836c-0.15287,-1.58604 0.75376,-3.36169 0.02778,-4.78008c-0.87152,-1.70273 -2.1729,-2.37538 -2.96243,-4.45105c-1.57398,-4.13798 1.49048,-9.43543 -0.0412,-13.87149c-1.30348,-3.77514 -3.93069,-8.01479 -5.79373,-11.40205c-0.65197,-1.18537 -0.83776,-2.79698 -0.86561,-4.12938c-0.00322,-0.15382 0.26783,-2.43885 0.1356,-2.50858c-2.32085,-1.22392 -4.27784,-2.83789 -6.16484,-4.66361c-1.76042,-1.70325 -1.47645,-4.48074 -3.3326,-6.13321c-0.48167,-0.42882 -3.68543,0.3328 -4.23013,0.32766c-4.50168,-0.04253 -7.90502,0.75925 -12.34195,1.29372c-3.21216,0.38693 -6.31594,-1.02624 -9.18914,-2.15774c-1.19042,-0.4688 -2.52419,-1.81748 -3.6454,-1.20122c-0.74047,0.40699 -3.56262,9.21303 -4.3423,10.66887c-1.94356,3.6291 -2.21967,7.31859 -3.59062,11.04626c-1.34354,3.65311 -3.71635,6.08277 -4.25463,10.19796c-0.83032,6.34787 -0.01123,13.87877 -2.23895,19.97287c-1.65312,4.52224 -5.79095,8.30955 -10.04513,10.41433c-0.98053,0.48513 -2.9596,1.0804 -4.01223,0.92636c-0.36337,-0.05318 -0.83434,-0.32449 -1.28208,-0.57987c-0.9125,3.10314 -1.65,6.19479 -2.0505,9.43811c0.11413,1.06154 0.22346,2.12125 0.16075,3.19493z" fill="url(#color-1)" stroke="none" stroke-width="0.5" stroke-linecap="butt"/><path d="M221.68276,182.05467l-2.71162,-3.10641c2.85372,-2.31262 5.90867,-3.90489 9.0788,-5.71436c0.80327,-0.4585 5.45755,-3.5251 5.76438,-3.64548c5.28621,-2.07384 9.1176,-0.83162 14.46548,-0.21458c4.47111,0.51588 8.65801,1.04345 12.62276,3.4257c4.19017,2.51769 7.1808,6.30644 10.5707,9.6831c0,0 1.76778,1.76776 0.00003,3.53554c-1.76775,1.76778 -3.53553,0.00002 -3.53553,0.00002c-3.13245,-3.14326 -5.85112,-6.62953 -9.71271,-8.996c-3.25011,-1.99174 -6.84431,-2.26238 -10.50654,-2.67997c-2.69834,-0.30768 -5.36071,-1.32509 -8.06924,-1.12624c-3.8188,0.28036 -5.99454,2.57207 -9.11134,4.35494c-2.66433,1.52406 -5.24935,2.83463 -7.67453,4.67544c-0.29368,0.32613 -0.57508,0.50202 -0.57508,0.50202l-0.02705,-0.03098c-0.04465,0.03601 -0.08924,0.07223 -0.13377,0.10865z" data-paper-data="{&quot;index&quot;:null}" fill="#000000" stroke="none" stroke-width="0.5" stroke-linecap="butt"/><path d="M234.78658,165.72673c-5.0391,0.119 -5.2423,-2.83199 -5.2423,-2.83199l-0.25332,-3.70753c-1.25226,-10.73316 -2.99618,-21.45101 -3.76507,-32.19995c0,0 -0.21075,-2.95079 4.82806,-3.07421c5.0388,-0.12342 5.24952,2.82739 5.24952,2.82739c0.76274,10.69675 2.50422,21.36308 3.75039,32.04414l0.2686,3.87218c0,0 0.2032,2.95099 -4.8359,3.06998z" fill="#000000" stroke="none" stroke-width="0.5" stroke-linecap="butt"/><path d="M260.11546,162.48864l-1.51411,-1.7442c-1.70201,-6.11872 0.29625,-12.0612 0.63684,-18.19682c0.30058,-5.41483 0.49477,-10.69029 1.3821,-16.0901c0,0 0.41813,-2.54338 5.44395,-2.33178c5.02583,0.2116 4.6077,2.75497 4.6077,2.75497c-0.87324,5.30972 -1.05273,10.48578 -1.3514,15.81099c-0.32639,5.81968 -2.41274,11.53211 -0.73499,17.32804l0.39297,0.03238c0,0 2.40734,2.24263 -2.02422,3.46089c-4.43153,1.21826 -6.83887,-1.02438 -6.83887,-1.02438z" data-paper-data="{&quot;index&quot;:null}" fill="#000000" stroke="none" stroke-width="0.5" stroke-linecap="butt"/><text transform="translate(155.88371,87.42747) rotate(-9.05559) scale(1.29005,1.29005)" font-size="40" xml:space="preserve" fill="#9966ff" fill-rule="nonzero" stroke="none" stroke-width="1" stroke-linecap="butt" stroke-linejoin="miter" stroke-miterlimit="10" stroke-dasharray="" stroke-dashoffset="0" font-family="Sans Serif" font-weight="normal" text-anchor="start" style="mix-blend-mode: normal"><tspan x="0" dy="0">✋</tspan></text><path d="M238.63543,117.74152l-34.44369,10.18757" data-paper-data="{&quot;index&quot;:null}" fill="none" stroke="#000000" stroke-width="2.5" stroke-linecap="round"/><path d="M285.69231,127.44396l-34.92882,-12.61318" data-paper-data="{&quot;index&quot;:null}" fill="none" stroke="#000000" stroke-width="2.5" stroke-linecap="round"/><path d="M179.93562,102.94528c0,-10.31514 18.67721,-24.98381 18.67721,-24.98381c0,0 18.67721,14.66867 18.67721,24.98381c0,10.31514 -8.36207,18.67721 -18.67721,18.67721c-10.31514,0 -18.67721,-8.36207 -18.67721,-18.67721z" fill="#0096ff" stroke="#000000" stroke-width="0.5" stroke-linecap="butt"/><text transform="translate(330.19761,81.75478) rotate(-170.94438) scale(1.29005,-1.29005)" font-size="40" xml:space="preserve" data-paper-data="{&quot;index&quot;:null}" fill="#9966ff" fill-rule="nonzero" stroke="none" stroke-width="1" stroke-linecap="butt" stroke-linejoin="miter" stroke-miterlimit="10" stroke-dasharray="" stroke-dashoffset="0" font-family="Sans Serif" font-weight="normal" text-anchor="start" style="mix-blend-mode: normal"><tspan x="0" dy="0">✋</tspan></text></g></g></svg>