<svg version="1.1" xmlns="http://www.w3.org/2000/svg" xmlns:xlink="http://www.w3.org/1999/xlink" width="310.22987" height="303.5" viewBox="0,0,310.22987,303.5"><defs><radialGradient cx="365" cy="259" r="39.5" gradientUnits="userSpaceOnUse" id="color-1"><stop offset="0" stop-color="#1200ff"/><stop offset="1" stop-color="#0b00ff"/></radialGradient></defs><g transform="translate(-100.52013,-6.75)"><g data-paper-data="{&quot;isPaintingLayer&quot;:true}" fill-rule="nonzero" stroke-linejoin="miter" stroke-miterlimit="10" stroke-dasharray="" stroke-dashoffset="0" style="mix-blend-mode: normal"><text transform="translate(100.77013,36) scale(0.5,0.5)" font-size="40" xml:space="preserve" fill="#000000" fill-rule="nonzero" stroke="none" stroke-width="1" stroke-linecap="butt" stroke-linejoin="miter" stroke-miterlimit="10" stroke-dasharray="" stroke-dashoffset="0" font-family="Sans Serif" font-weight="normal" text-anchor="start" style="mix-blend-mode: normal"><tspan x="0" dy="0">damian is using da computer</tspan></text><path d="M235.5,299h54" fill="none" stroke="#000000" stroke-width="12.5" stroke-linecap="round"/><text transform="translate(101.02013,66) scale(0.5,0.5)" font-size="40" xml:space="preserve" fill="#000000" fill-rule="nonzero" stroke="none" stroke-width="1" stroke-linecap="butt" stroke-linejoin="miter" stroke-miterlimit="10" stroke-dasharray="" stroke-dashoffset="0" font-family="Sans Serif" font-weight="normal" text-anchor="start" style="mix-blend-mode: normal"><tspan x="0" dy="0">what he doin? nobody knows</tspan></text><path d="M365,277v24" fill="none" stroke="#000000" stroke-width="12.5" stroke-linecap="round"/><path d="M340.5,304h49" fill="none" stroke="#000000" stroke-width="12.5" stroke-linecap="round"/><path d="M325.5,285.5v-53h79v53z" fill="url(#color-1)" stroke="#000000" stroke-width="12.5" stroke-linecap="butt"/><path d="M284.25,7c0,-0.13807 0.11193,-0.25 0.25,-0.25c0.13807,0 0.25,0.11193 0.25,0.25c0,0.13807 -0.11193,0.25 -0.25,0.25c-0.13807,0 -0.25,-0.11193 -0.25,-0.25z" fill="#000000" stroke="none" stroke-width="0.5" stroke-linecap="butt"/><path d="M284.25,31c0,-0.13807 0.11193,-0.25 0.25,-0.25c0.13807,0 0.25,0.11193 0.25,0.25c0,0.13807 -0.11193,0.25 -0.25,0.25c-0.13807,0 -0.25,-0.11193 -0.25,-0.25z" fill="#000000" stroke="none" stroke-width="0.5" stroke-linecap="butt"/><text transform="translate(332.5,265) scale(0.5,0.5)" font-size="40" xml:space="preserve" fill="#ffffff" fill-rule="nonzero" stroke="none" stroke-width="1" stroke-linecap="butt" stroke-linejoin="miter" stroke-miterlimit="10" stroke-dasharray="" stroke-dashoffset="0" font-family="Sans Serif" font-weight="normal" text-anchor="start" style="mix-blend-mode: normal"><tspan x="0" dy="0">ERROR</tspan></text></g></g></svg>