<svg version="1.1" xmlns="http://www.w3.org/2000/svg" xmlns:xlink="http://www.w3.org/1999/xlink" width="254.86793" height="135.40296" viewBox="0,0,254.86793,135.40296"><g transform="translate(-91.12986,-183.35035)"><g data-paper-data="{&quot;isPaintingLayer&quot;:true}" fill-rule="nonzero" stroke-linecap="butt" stroke-linejoin="miter" stroke-miterlimit="10" stroke-dasharray="" stroke-dashoffset="0" style="mix-blend-mode: normal"><path d="M245.80481,199.26818c4.58991,-3.1013 8.28209,-4.01076 13.71217,-3.2703c3.26896,1.37677 5.63044,1.89598 8.10844,4.33768c2.72185,2.68199 4.23477,4.09656 4.72736,7.67453c0.61279,4.45106 -0.47282,9.26079 -3.58047,12.59803c-7.50207,8.0563 -21.77373,7.14738 -25.64442,-4.01586c-1.53267,-4.42029 -0.46949,-8.30762 -0.54261,-12.75523c0,0 -0.02217,-1.82022 1.52453,-2.37314zM248.79249,217.13647c4.01928,5.33524 9.71706,4.52001 14.68132,1.26837c3.05843,-2.0033 5.86337,-7.76075 3.51301,-11.2585c-2.43559,-3.62461 -4.92071,-4.68788 -8.79539,-6.32735c-3.80782,-0.5367 -6.38423,0.37516 -9.56645,2.57795l-0.96467,1.64235c0,0 -0.03997,0.0567 -0.11605,0.14453c-0.23449,3.96352 -1.3025,8.56682 1.24822,11.95266z" data-paper-data="{&quot;index&quot;:null}" fill="#000000" stroke="#ffffff" stroke-width="0.5"/><path d="M100.99779,318.75331v-93h245v93z" fill="#714200" stroke="none" stroke-width="0"/><path d="M109.99779,236.75331v-25h229v25z" fill="#ffffff" stroke="none" stroke-width="0"/><path d="M298.68111,246.31526c-0.88542,-0.87787 -0.65227,-1.76053 -0.3634,-2.28863c-7.87119,-0.2287 -17.20796,-4.47858 -21.27888,-10.74516c-2.143,-3.29882 -2.44514,-6.97896 -3.54202,-10.54368c-1.55319,-0.10083 -1.72919,-1.75752 -1.72919,-1.75752l-0.25508,-2.44055c-0.00375,-0.09318 -0.00745,-0.18614 -0.01107,-0.27891c-0.08289,-0.19355 -0.15995,-0.38947 -0.22895,-0.58865c0,0 -0.32343,-0.94791 0.16814,-1.7213c-0.01643,-2.35348 0.15606,-4.62687 0.93813,-6.99202c1.53387,-4.63876 5.91367,-8.39111 9.24552,-11.74641c3.31004,-3.33332 6.61983,-7.00707 10.6024,-9.55528c7.07745,-4.52843 15.28915,-4.82689 23.27761,-3.03155c1.53723,0.54414 3.07872,1.19158 4.57757,1.94707l0.86543,0.17092c0,0 0.28697,0.20866 0.5284,0.5706c2.95233,1.6569 5.67279,3.75713 7.77975,6.33942c3.89292,4.77114 4.12572,11.73744 3.14625,17.52891c-1.69844,10.0426 -7.93271,19.92158 -16.28989,26.24178c0.12871,0.36506 0.14289,0.82209 -0.08414,1.38097c-0.73971,1.82099 -2.5607,1.08128 -2.5607,1.08128c-0.20258,-0.08358 -0.40838,-0.16507 -0.61596,-0.24617c-1.28193,0.77714 -2.60198,1.47069 -3.95281,2.07037c-2.75573,1.02148 -3.84561,1.59453 -6.28382,2.00742c-0.02711,0.32494 -0.06364,0.65436 -0.11075,0.98937l-1.04292,1.5958c0,0 -1.38385,1.39575 -2.77961,0.0119zM298.54293,204.59237c-0.7029,-0.27309 -1.37613,-0.61205 -1.98356,-1.04625c-0.81424,-0.58202 -1.14361,-1.64289 -1.71542,-2.46432c0,0 -0.80884,-1.24231 0.05724,-2.27158c-1.38501,-0.55338 -1.1047,-2.14103 -1.1047,-2.14103l0.47303,-1.35331c0.74744,-0.89703 1.24954,-2.07649 2.24232,-2.69108c0.91069,-0.56377 2.00409,-0.85901 3.08552,-0.93941c0.37738,-1.16425 0.77277,-2.32287 1.18562,-3.47514c-2.23025,0.54989 -4.39069,1.44295 -6.42905,2.75258c-3.73584,2.40027 -6.83776,5.89638 -9.9468,9.02603c-2.8505,2.86939 -7.02295,6.26473 -8.31571,10.26188c-0.77819,2.40615 -0.78051,4.70761 -0.69064,7.14173c0.47131,0.98648 1.07264,1.92073 1.4384,2.9508c1.28299,3.6132 1.36532,7.46243 3.51413,10.82466c3.34752,5.23785 11.71301,8.81654 18.3096,8.93319c-0.15827,-1.47086 -0.45369,-2.9354 -0.6771,-4.54598c-0.48577,-3.50199 -0.53432,-7.12562 -0.81433,-10.65933c0,0 -0.0465,-0.59108 0.2362,-1.14949c-2.12976,-0.69342 -3.48102,-1.96725 -5.17589,-3.31009c0,0 -0.95885,-0.76446 -0.75797,-1.84309l-0.17776,-1.74245c1.33955,-2.44899 3.71011,-5.37657 6.47569,-6.73423c-0.07045,-1.137 -0.04162,-2.28177 0.10377,-3.40617zM311.29659,234.38544c0.20762,0.30091 0.65273,0.59221 1.16775,0.85375c8.20313,-5.62439 14.44914,-15.19544 16.06043,-24.70627c0.78558,-4.63698 0.84573,-10.59137 -2.34533,-14.43168c-1.9334,-2.32675 -4.47722,-4.22888 -7.21043,-5.69562c-1.59769,0.74484 -2.97746,1.58838 -3.29966,3.60988c-0.0779,0.48869 -0.04325,1.56794 0.38844,2.10437l2.10412,0.19889c1.05755,0.09549 1.85216,1.01742 1.78374,2.08337c-0.05026,0.78302 -0.55246,1.42941 -1.23611,1.70134l-2.54422,1.07433c-2.85759,2.94496 -4.63809,6.64546 -3.4036,10.87532c0.10279,0.3522 0.26514,0.6698 0.47076,0.96176l2.48428,1.15143c0.73771,0.32128 1.23108,1.07916 1.17656,1.92847c-0.04975,0.77505 -0.54228,1.41625 -1.21528,1.69293l-1.70815,0.74362c-1.65621,1.75655 -1.94775,3.28486 -2.61704,5.62645c-0.96937,3.39144 -2.31746,6.95037 -0.05627,10.22765zM304.99795,188.12908c-0.50488,1.35277 -0.98454,2.7153 -1.43798,4.08628c1.53478,0.54848 2.89119,1.52646 3.74481,3.02827c2.65977,4.67941 0.06363,10.20265 -4.92323,10.19817c-0.02514,0.13077 -0.05119,0.20971 -0.05119,0.20971l-0.56075,1.59624c-0.10679,0.71498 -0.14227,1.44379 -0.11722,2.17093c0.96304,0.14511 1.93763,0.54763 2.90254,1.27592c0.92756,0.7001 1.56811,1.72353 2.23835,2.67288c0.63064,0.89326 1.48484,1.75414 1.65022,2.835c0.61826,4.04089 -3.51812,7.19718 -7.49911,7.78915c0.12499,0.32903 0.14599,0.5959 0.14599,0.5959c0.27044,3.4636 0.31074,7.03001 0.79337,10.45888c0.2326,1.65244 0.49819,3.17019 0.65546,4.68456c1.71702,-0.3556 2.72189,-0.85679 4.87733,-1.66127c0.45011,-0.19876 0.89653,-0.40971 1.33892,-0.63234c-0.20141,-0.19525 -0.39038,-0.40803 -0.56419,-0.64154c-4.29224,-5.76669 -1.56822,-15.42037 2.75035,-20.61472c-2.14344,-1.49807 -2.05415,-3.68248 -2.20538,-5.92442c-0.33414,-4.95335 1.22007,-8.12281 4.37609,-11.4661c-1.20284,-1.40535 -1.56604,-3.68868 -1.34104,-5.28314c0.33111,-2.34646 1.41162,-3.85134 2.90545,-5.01148c-0.08684,-0.03138 -0.17365,-0.06235 -0.26043,-0.09289c-3.32329,-0.74977 -6.7162,-1.08679 -10.02157,-0.79017l0.60321,0.5162zM300.21809,213.54665c-0.33398,0.05368 -0.61972,0.04065 -0.86393,-0.01773c-1.62399,0.81025 -3.19216,2.88332 -4.0831,4.30479c2.32659,1.84854 3.56337,2.57648 6.65561,1.49707c0.87422,-0.30516 3.17205,-0.77193 2.66618,-2.33766c-0.17007,-0.52639 -0.65623,-0.89078 -0.99127,-1.33095c-0.46694,-0.61346 -0.85189,-1.30282 -1.4146,-1.82983c-0.35392,-0.33146 -0.7261,-0.52348 -1.10784,-0.6028c-0.22093,0.14629 -0.50255,0.25949 -0.86105,0.31711zM301.80003,195.79742c-0.54399,-0.13316 -1.0989,-0.18636 -1.56326,-0.20435c-0.54082,-0.02095 -1.15578,0.00814 -1.58937,0.33208c-0.59296,0.44301 -0.85462,1.20875 -1.28194,1.81313l0.30217,-0.38558c0,0 -0.0757,0.42874 -0.35763,0.84703c0.52754,0.27535 0.82826,0.73723 0.82826,0.73723c0.30256,0.52151 0.42244,1.20668 0.90769,1.56453c0.688,0.50739 1.57639,0.68512 2.40848,0.88109c2.07896,0.48963 3.08124,-0.66069 3.00476,-2.24147c0.05085,-0.19873 0.07788,-0.40699 0.07788,-0.62156c0,-1.38071 -1.11929,-2.5 -2.5,-2.5c-0.15405,0 -0.30484,0.01393 -0.45118,0.04061c0.06387,-0.09382 0.13559,-0.1817 0.21416,-0.26274zM298.62995,244.03359c-0.00204,-0.00004 -0.00408,-0.00006 -0.00612,-0.00009l-0.00922,0.10112c0.00525,-0.03374 0.01036,-0.06741 0.01533,-0.10102z" data-paper-data="{&quot;index&quot;:null}" fill="#000000" stroke="#ffffff" stroke-width="0.5"/><path d="M291.86187,202.34192l0.00977,-0.06813c-1.91399,2.58933 -5.00754,5.91056 -4.78615,9.33267c0.12003,1.85513 1.96664,4.29957 2.57472,6.06477c0,0 0.63397,1.86045 -1.22649,2.49442c-1.86045,0.63397 -2.49442,-1.22649 -2.49442,-1.22649c-0.72876,-2.1662 -2.64001,-4.62752 -2.76304,-6.91951c-0.25626,-4.7738 2.86534,-8.46143 5.53256,-12.08025l0.55722,-0.54951c0,0 1.47601,-1.29791 2.77392,0.1781c1.29791,1.47601 -0.1781,2.77392 -0.1781,2.77392z" data-paper-data="{&quot;index&quot;:null}" fill="#000000" stroke="#ffffff" stroke-width="0.5"/><path d="M91.99779,297.75331c0,0 -1.95285,-54.25464 0,-74.75976c2.79974,-29.39766 187.91292,-39.47599 189,-0.77072c1.32392,47.13756 0,75.53048 0,75.53048z" fill="#ff0000" stroke="none" stroke-width="0"/><path d="M269.9231,234.27369c3.7824,-4.55949 8.80497,-8.95662 15.39975,-7.85101c1.86144,0.31207 3.98866,0.42849 5.41046,1.6698c5.0499,4.40885 3.24442,13.73838 -0.21316,18.30664c-4.80216,6.34476 -19.3302,7.94681 -22.29204,-0.91444c-1.31249,-3.92669 0.22673,-7.09045 1.66935,-10.55966c0.00855,-0.21711 0.0171,-0.43422 0.02565,-0.65132zM272.76541,242.45214c0.0054,0.4634 0.06606,0.93759 0.19753,1.42589c0.43706,1.62333 2.00377,2.29008 3.54923,2.522c3.12041,0.46825 8.02883,-0.37948 10.13816,-3.16708c1.67389,-2.21215 3.69754,-8.90487 0.89145,-11.29155c-0.71972,-0.61214 -1.83949,-0.46614 -2.78055,-0.55037c-4.03718,-0.36132 -7.32584,1.73714 -9.97338,4.45599c-0.03746,0.35806 -0.12859,0.63331 -0.16437,0.73108c0.03696,0.84002 0.07394,1.68006 0.1109,2.52009l0.16066,0.05407c0,0 0.79451,2.37038 -1.57588,3.1649c-0.19512,0.0654 -0.37957,0.10936 -0.55376,0.13495z" data-paper-data="{&quot;index&quot;:null}" fill="#000000" stroke="#ffffff" stroke-width="0.5"/><path d="M299.6337,218.33977c-0.25,0 -0.25,-0.25 -0.25,-0.25c0,-0.83333 0,-1.91336 0,-2.7467c0,0 0,-0.25 0.25,-0.25c0.25,0 0.25,0.25 0.25,0.25c0,0.83333 0,1.66667 0,2.5v0.2467c0,0 0,0.25 -0.25,0.25z" fill="#000000" stroke="none" stroke-width="0.5"/><path d="M300.66371,200.1429c-0.25,0 -0.25,-0.25 -0.25,-0.25c0,-0.83333 0,-1.91336 0,-2.7467c0,0 0,-0.25 0.25,-0.25c0.25,0 0.25,0.25 0.25,0.25c0,0.83333 0,1.66667 0,2.5v0.2467c0,0 0,0.25 -0.25,0.25z" fill="#000000" stroke="none" stroke-width="0.5"/></g></g></svg>